<svg xmlns="http://www.w3.org/2000/svg" xmlns:xlink="http://www.w3.org/1999/xlink" width="115" zoomAndPan="magnify" viewBox="0 0 86.25 30.000001" height="40" preserveAspectRatio="xMidYMid meet" version="1.0"><defs><g/><clipPath id="868b885564"><path d="M 1.027344 4.769531 L 84.496094 4.769531 L 84.496094 23.796875 L 1.027344 23.796875 Z M 1.027344 4.769531 " clip-rule="nonzero"/></clipPath><clipPath id="f6c34eefc0"><path d="M 10.542969 4.769531 L 74.980469 4.769531 C 80.234375 4.769531 84.496094 9.027344 84.496094 14.28125 C 84.496094 19.539062 80.234375 23.796875 74.980469 23.796875 L 10.542969 23.796875 C 5.289062 23.796875 1.027344 19.539062 1.027344 14.28125 C 1.027344 9.027344 5.289062 4.769531 10.542969 4.769531 Z M 10.542969 4.769531 " clip-rule="nonzero"/></clipPath><clipPath id="a433d14acf"><path d="M 6.640625 9 L 16.800781 9 L 16.800781 18.386719 L 6.640625 18.386719 Z M 6.640625 9 " clip-rule="nonzero"/></clipPath></defs><g clip-path="url(#868b885564)"><g clip-path="url(#f6c34eefc0)"><path fill="#f3abff" d="M 1.027344 4.769531 L 84.503906 4.769531 L 84.503906 23.796875 L 1.027344 23.796875 Z M 1.027344 4.769531 " fill-opacity="1" fill-rule="nonzero"/></g></g><g clip-path="url(#a433d14acf)"><path fill="#551684" d="M 11.175781 9.234375 C 8.980469 9.476562 7.191406 11.246094 6.925781 13.4375 C 6.859375 13.992188 6.882812 14.546875 7.007812 15.089844 C 7.128906 15.636719 7.335938 16.148438 7.636719 16.621094 C 7.933594 17.097656 8.304688 17.507812 8.742188 17.851562 C 9.183594 18.199219 9.667969 18.460938 10.199219 18.640625 C 10.441406 18.675781 10.519531 18.527344 10.519531 18.398438 L 10.519531 17.578125 C 9.179688 17.871094 8.894531 16.929688 8.894531 16.929688 C 8.671875 16.367188 8.355469 16.21875 8.355469 16.21875 C 7.917969 15.917969 8.390625 15.929688 8.390625 15.929688 C 8.875 15.964844 9.132812 16.425781 9.132812 16.425781 C 9.554688 17.164062 10.265625 16.945312 10.539062 16.828125 C 10.582031 16.515625 10.710938 16.300781 10.84375 16.179688 C 9.769531 16.058594 8.644531 15.644531 8.644531 13.800781 C 8.644531 13.261719 8.828125 12.832031 9.140625 12.488281 C 9.09375 12.367188 8.921875 11.863281 9.1875 11.210938 C 9.1875 11.210938 9.597656 11.078125 10.519531 11.703125 C 11.328125 11.488281 12.132812 11.488281 12.941406 11.703125 C 13.863281 11.078125 14.269531 11.210938 14.269531 11.210938 C 14.535156 11.863281 14.367188 12.367188 14.320312 12.488281 C 14.632812 12.832031 14.816406 13.261719 14.816406 13.800781 C 14.816406 15.648438 13.683594 16.054688 12.605469 16.175781 C 12.78125 16.324219 12.941406 16.621094 12.941406 17.070312 L 12.941406 18.398438 C 12.941406 18.527344 13.015625 18.683594 13.265625 18.640625 C 13.832031 18.449219 14.347656 18.164062 14.808594 17.78125 C 15.269531 17.402344 15.648438 16.949219 15.941406 16.429688 C 16.238281 15.910156 16.429688 15.351562 16.515625 14.757812 C 16.605469 14.167969 16.585938 13.578125 16.453125 12.996094 C 16.324219 12.410156 16.09375 11.871094 15.765625 11.371094 C 15.433594 10.871094 15.023438 10.449219 14.539062 10.101562 C 14.050781 9.753906 13.515625 9.503906 12.9375 9.355469 C 12.355469 9.207031 11.769531 9.164062 11.175781 9.234375 Z M 11.175781 9.234375 " fill-opacity="1" fill-rule="nonzero"/></g><g fill="#551684" fill-opacity="1"><g transform="translate(19.411232, 16.69355)"><g><path d="M 0.03125 -6.75 L 0.921875 -7.09375 L 1.15625 -7.203125 L 1.25 -6.96875 L 3.140625 -1.71875 L 5.0625 -6.9375 L 5.125 -7.15625 L 5.359375 -7.0625 L 6.203125 -6.75 L 6.421875 -6.65625 L 6.328125 -6.4375 L 3.859375 0.09375 L 3.796875 0.234375 L 2.4375 0.234375 L 2.375 0.09375 L -0.109375 -6.4375 L -0.203125 -6.65625 Z M 0.03125 -6.75 "/></g></g></g><g fill="#551684" fill-opacity="1"><g transform="translate(25.602338, 16.69355)"><g><path d="M 1.609375 -1.921875 C 1.679688 -1.628906 1.804688 -1.398438 1.984375 -1.234375 C 2.210938 -1.015625 2.515625 -0.90625 2.890625 -0.90625 C 2.984375 -0.90625 3.070312 -0.90625 3.15625 -0.90625 C 3.238281 -0.914062 3.316406 -0.925781 3.390625 -0.9375 C 3.472656 -0.945312 3.550781 -0.960938 3.625 -0.984375 C 3.6875 -1.003906 3.753906 -1.023438 3.828125 -1.046875 C 3.898438 -1.066406 3.96875 -1.085938 4.03125 -1.109375 C 4.101562 -1.140625 4.175781 -1.171875 4.25 -1.203125 L 4.5 -1.328125 L 4.578125 -1.046875 L 4.78125 -0.3125 L 4.84375 -0.109375 L 4.65625 -0.015625 C 4.40625 0.0976562 4.125 0.1875 3.8125 0.25 C 3.65625 0.289062 3.488281 0.316406 3.3125 0.328125 C 3.144531 0.347656 2.96875 0.359375 2.78125 0.359375 C 2.394531 0.359375 2.039062 0.296875 1.71875 0.171875 C 1.394531 0.0351562 1.117188 -0.160156 0.890625 -0.421875 C 0.660156 -0.660156 0.488281 -0.960938 0.375 -1.328125 C 0.25 -1.671875 0.1875 -2.066406 0.1875 -2.515625 C 0.1875 -2.910156 0.25 -3.285156 0.375 -3.640625 C 0.4375 -3.804688 0.507812 -3.96875 0.59375 -4.125 C 0.675781 -4.28125 0.769531 -4.425781 0.875 -4.5625 C 1.09375 -4.8125 1.359375 -5.015625 1.671875 -5.171875 C 1.984375 -5.316406 2.328125 -5.390625 2.703125 -5.390625 C 2.835938 -5.390625 2.960938 -5.378906 3.078125 -5.359375 C 3.203125 -5.347656 3.316406 -5.328125 3.421875 -5.296875 C 3.535156 -5.265625 3.644531 -5.226562 3.75 -5.1875 C 3.90625 -5.113281 4.046875 -5.03125 4.171875 -4.9375 C 4.296875 -4.84375 4.410156 -4.734375 4.515625 -4.609375 C 4.710938 -4.367188 4.863281 -4.097656 4.96875 -3.796875 C 5.019531 -3.640625 5.054688 -3.476562 5.078125 -3.3125 C 5.097656 -3.144531 5.109375 -2.976562 5.109375 -2.8125 C 5.109375 -2.769531 5.109375 -2.722656 5.109375 -2.671875 C 5.109375 -2.628906 5.109375 -2.582031 5.109375 -2.53125 C 5.109375 -2.488281 5.109375 -2.441406 5.109375 -2.390625 C 5.109375 -2.347656 5.101562 -2.304688 5.09375 -2.265625 C 5.09375 -2.222656 5.09375 -2.179688 5.09375 -2.140625 L 5.0625 -1.921875 Z M 2.6875 -4.15625 C 2.375 -4.15625 2.125 -4.050781 1.9375 -3.84375 C 1.851562 -3.757812 1.78125 -3.65625 1.71875 -3.53125 C 1.664062 -3.40625 1.625 -3.265625 1.59375 -3.109375 L 3.828125 -3.109375 C 3.785156 -3.410156 3.6875 -3.648438 3.53125 -3.828125 C 3.332031 -4.046875 3.050781 -4.15625 2.6875 -4.15625 Z M 2.6875 -4.15625 "/></g></g></g><g fill="#551684" fill-opacity="1"><g transform="translate(30.864778, 16.69355)"><g><path d="M 3.40625 -3.96875 C 3.3125 -4.007812 3.195312 -4.03125 3.0625 -4.03125 C 2.988281 -4.03125 2.914062 -4.019531 2.84375 -4 C 2.78125 -3.976562 2.710938 -3.953125 2.640625 -3.921875 C 2.492188 -3.867188 2.367188 -3.773438 2.265625 -3.640625 C 2.210938 -3.578125 2.160156 -3.5 2.109375 -3.40625 C 2.066406 -3.320312 2.03125 -3.234375 2 -3.140625 C 1.925781 -2.921875 1.890625 -2.65625 1.890625 -2.34375 L 1.890625 0.234375 L 0.53125 0.234375 L 0.53125 -5.265625 L 1.859375 -5.265625 L 1.859375 -4.796875 C 1.910156 -4.859375 1.972656 -4.914062 2.046875 -4.96875 C 2.191406 -5.09375 2.363281 -5.191406 2.5625 -5.265625 C 2.664062 -5.304688 2.769531 -5.335938 2.875 -5.359375 C 2.988281 -5.378906 3.109375 -5.390625 3.234375 -5.390625 C 3.335938 -5.390625 3.441406 -5.382812 3.546875 -5.375 C 3.648438 -5.363281 3.742188 -5.34375 3.828125 -5.3125 L 4.0625 -5.25 L 4 -5.015625 L 3.734375 -4.125 L 3.65625 -3.859375 Z M 3.40625 -3.96875 "/></g></g></g><g fill="#551684" fill-opacity="1"><g transform="translate(34.724546, 16.69355)"><g><path d="M 0.875 -1.3125 C 1.007812 -1.1875 1.191406 -1.082031 1.421875 -1 C 1.648438 -0.914062 1.894531 -0.875 2.15625 -0.875 C 2.46875 -0.875 2.695312 -0.921875 2.84375 -1.015625 C 2.957031 -1.085938 3.015625 -1.175781 3.015625 -1.28125 C 3.015625 -1.34375 3 -1.398438 2.96875 -1.453125 C 2.945312 -1.503906 2.910156 -1.554688 2.859375 -1.609375 C 2.773438 -1.671875 2.664062 -1.734375 2.53125 -1.796875 C 2.488281 -1.804688 2.441406 -1.820312 2.390625 -1.84375 C 2.347656 -1.863281 2.300781 -1.882812 2.25 -1.90625 C 2.195312 -1.925781 2.144531 -1.945312 2.09375 -1.96875 C 2.039062 -1.988281 1.984375 -2.007812 1.921875 -2.03125 C 1.742188 -2.09375 1.585938 -2.15625 1.453125 -2.21875 C 1.316406 -2.28125 1.191406 -2.347656 1.078125 -2.421875 C 0.960938 -2.492188 0.859375 -2.570312 0.765625 -2.65625 C 0.617188 -2.789062 0.507812 -2.953125 0.4375 -3.140625 C 0.375 -3.328125 0.34375 -3.535156 0.34375 -3.765625 C 0.34375 -3.992188 0.394531 -4.210938 0.5 -4.421875 C 0.53125 -4.484375 0.566406 -4.546875 0.609375 -4.609375 C 0.660156 -4.671875 0.710938 -4.726562 0.765625 -4.78125 C 0.816406 -4.832031 0.875 -4.882812 0.9375 -4.9375 C 1.125 -5.082031 1.347656 -5.191406 1.609375 -5.265625 C 1.867188 -5.347656 2.164062 -5.390625 2.5 -5.390625 C 2.84375 -5.390625 3.148438 -5.351562 3.421875 -5.28125 C 3.554688 -5.238281 3.679688 -5.195312 3.796875 -5.15625 C 3.921875 -5.113281 4.035156 -5.0625 4.140625 -5 L 4.328125 -4.90625 L 4.265625 -4.703125 L 4.03125 -4 L 3.921875 -3.71875 L 3.671875 -3.859375 C 3.515625 -3.953125 3.335938 -4.03125 3.140625 -4.09375 C 2.929688 -4.144531 2.703125 -4.171875 2.453125 -4.171875 C 2.359375 -4.171875 2.269531 -4.164062 2.1875 -4.15625 C 2.101562 -4.144531 2.03125 -4.128906 1.96875 -4.109375 C 1.914062 -4.085938 1.875 -4.0625 1.84375 -4.03125 C 1.769531 -3.976562 1.722656 -3.929688 1.703125 -3.890625 C 1.679688 -3.847656 1.671875 -3.804688 1.671875 -3.765625 C 1.671875 -3.722656 1.675781 -3.6875 1.6875 -3.65625 C 1.707031 -3.632812 1.738281 -3.601562 1.78125 -3.5625 C 1.84375 -3.519531 1.929688 -3.472656 2.046875 -3.421875 C 2.109375 -3.398438 2.175781 -3.375 2.25 -3.34375 C 2.320312 -3.3125 2.40625 -3.28125 2.5 -3.25 C 2.582031 -3.21875 2.660156 -3.1875 2.734375 -3.15625 C 2.816406 -3.125 2.890625 -3.09375 2.953125 -3.0625 C 3.023438 -3.039062 3.09375 -3.015625 3.15625 -2.984375 C 3.21875 -2.953125 3.28125 -2.925781 3.34375 -2.90625 C 3.582031 -2.769531 3.78125 -2.628906 3.9375 -2.484375 C 4.09375 -2.328125 4.207031 -2.148438 4.28125 -1.953125 C 4.34375 -1.765625 4.375 -1.5625 4.375 -1.34375 C 4.375 -1.082031 4.316406 -0.84375 4.203125 -0.625 C 4.085938 -0.40625 3.929688 -0.222656 3.734375 -0.078125 C 3.628906 -0.00390625 3.515625 0.0546875 3.390625 0.109375 C 3.273438 0.160156 3.148438 0.207031 3.015625 0.25 C 2.742188 0.320312 2.445312 0.359375 2.125 0.359375 C 1.71875 0.359375 1.347656 0.304688 1.015625 0.203125 C 0.679688 0.0859375 0.40625 -0.0507812 0.1875 -0.21875 L 0.03125 -0.34375 L 0.125 -0.515625 L 0.5 -1.234375 L 0.625 -1.515625 Z M 0.875 -1.3125 "/></g></g></g><g fill="#551684" fill-opacity="1"><g transform="translate(39.251788, 16.69355)"><g><path d="M 1.640625 0.234375 L 0.53125 0.234375 L 0.53125 -5.265625 L 1.890625 -5.265625 L 1.890625 0.234375 Z M 1.203125 -5.640625 C 0.972656 -5.640625 0.773438 -5.722656 0.609375 -5.890625 C 0.441406 -6.066406 0.359375 -6.269531 0.359375 -6.5 C 0.359375 -6.75 0.4375 -6.953125 0.59375 -7.109375 C 0.75 -7.265625 0.953125 -7.34375 1.203125 -7.34375 C 1.328125 -7.34375 1.4375 -7.320312 1.53125 -7.28125 C 1.632812 -7.238281 1.726562 -7.175781 1.8125 -7.09375 C 1.894531 -7.019531 1.957031 -6.929688 2 -6.828125 C 2.039062 -6.722656 2.0625 -6.613281 2.0625 -6.5 C 2.0625 -6.25 1.984375 -6.039062 1.828125 -5.875 C 1.671875 -5.71875 1.460938 -5.640625 1.203125 -5.640625 Z M 1.203125 -5.640625 "/></g></g></g><g fill="#551684" fill-opacity="1"><g transform="translate(41.670187, 16.69355)"><g><path d="M 4.265625 -2.515625 C 4.265625 -2.742188 4.226562 -2.957031 4.15625 -3.15625 C 4.082031 -3.34375 3.988281 -3.515625 3.875 -3.671875 C 3.820312 -3.710938 3.773438 -3.753906 3.734375 -3.796875 C 3.691406 -3.835938 3.644531 -3.875 3.59375 -3.90625 C 3.539062 -3.945312 3.484375 -3.976562 3.421875 -4 C 3.347656 -4.050781 3.265625 -4.082031 3.171875 -4.09375 C 3.078125 -4.113281 2.984375 -4.125 2.890625 -4.125 C 2.460938 -4.125 2.128906 -3.988281 1.890625 -3.71875 C 1.640625 -3.425781 1.515625 -3.03125 1.515625 -2.53125 C 1.515625 -2.3125 1.550781 -2.097656 1.625 -1.890625 C 1.632812 -1.859375 1.644531 -1.828125 1.65625 -1.796875 C 1.675781 -1.765625 1.691406 -1.734375 1.703125 -1.703125 C 1.722656 -1.671875 1.738281 -1.640625 1.75 -1.609375 C 1.769531 -1.578125 1.785156 -1.546875 1.796875 -1.515625 C 1.816406 -1.492188 1.835938 -1.46875 1.859375 -1.4375 C 1.878906 -1.414062 1.898438 -1.394531 1.921875 -1.375 C 1.960938 -1.320312 2.003906 -1.273438 2.046875 -1.234375 C 2.097656 -1.191406 2.144531 -1.148438 2.1875 -1.109375 C 2.238281 -1.078125 2.296875 -1.050781 2.359375 -1.03125 C 2.429688 -0.976562 2.515625 -0.941406 2.609375 -0.921875 C 2.703125 -0.910156 2.796875 -0.90625 2.890625 -0.90625 C 3.109375 -0.90625 3.300781 -0.941406 3.46875 -1.015625 C 3.550781 -1.054688 3.625 -1.101562 3.6875 -1.15625 C 3.757812 -1.207031 3.828125 -1.265625 3.890625 -1.328125 C 4.015625 -1.460938 4.109375 -1.632812 4.171875 -1.84375 C 4.234375 -2.039062 4.265625 -2.265625 4.265625 -2.515625 Z M 0.140625 -2.515625 C 0.140625 -2.953125 0.210938 -3.347656 0.359375 -3.703125 C 0.503906 -4.054688 0.695312 -4.359375 0.9375 -4.609375 C 1.1875 -4.859375 1.476562 -5.050781 1.8125 -5.1875 C 2.144531 -5.320312 2.503906 -5.390625 2.890625 -5.390625 C 2.984375 -5.390625 3.078125 -5.382812 3.171875 -5.375 C 3.265625 -5.363281 3.351562 -5.347656 3.4375 -5.328125 C 3.53125 -5.316406 3.617188 -5.296875 3.703125 -5.265625 C 3.796875 -5.242188 3.882812 -5.21875 3.96875 -5.1875 C 4.132812 -5.125 4.289062 -5.039062 4.4375 -4.9375 C 4.582031 -4.84375 4.71875 -4.734375 4.84375 -4.609375 C 5.09375 -4.359375 5.285156 -4.054688 5.421875 -3.703125 C 5.566406 -3.359375 5.640625 -2.96875 5.640625 -2.53125 C 5.640625 -2.101562 5.570312 -1.710938 5.4375 -1.359375 C 5.289062 -1.003906 5.097656 -0.695312 4.859375 -0.4375 C 4.734375 -0.3125 4.597656 -0.195312 4.453125 -0.09375 C 4.304688 0 4.144531 0.0820312 3.96875 0.15625 C 3.632812 0.289062 3.273438 0.359375 2.890625 0.359375 C 2.703125 0.359375 2.515625 0.335938 2.328125 0.296875 C 2.140625 0.265625 1.960938 0.210938 1.796875 0.140625 C 1.460938 0.00390625 1.171875 -0.1875 0.921875 -0.4375 C 0.679688 -0.695312 0.488281 -1.003906 0.34375 -1.359375 C 0.207031 -1.710938 0.140625 -2.097656 0.140625 -2.515625 Z M 0.140625 -2.515625 "/></g></g></g><g fill="#551684" fill-opacity="1"><g transform="translate(47.454998, 16.69355)"><g><path d="M 1.859375 -4.828125 C 1.910156 -4.878906 1.960938 -4.921875 2.015625 -4.953125 C 2.066406 -4.992188 2.117188 -5.03125 2.171875 -5.0625 C 2.492188 -5.28125 2.875 -5.390625 3.3125 -5.390625 C 3.625 -5.390625 3.898438 -5.335938 4.140625 -5.234375 C 4.390625 -5.140625 4.597656 -4.988281 4.765625 -4.78125 C 5.078125 -4.394531 5.234375 -3.894531 5.234375 -3.28125 L 5.234375 0.234375 L 3.890625 0.234375 L 3.890625 -3.1875 C 3.890625 -3.289062 3.878906 -3.390625 3.859375 -3.484375 C 3.847656 -3.578125 3.828125 -3.65625 3.796875 -3.71875 C 3.765625 -3.789062 3.726562 -3.851562 3.6875 -3.90625 C 3.644531 -3.957031 3.597656 -4 3.546875 -4.03125 C 3.503906 -4.070312 3.445312 -4.097656 3.375 -4.109375 C 3.3125 -4.128906 3.238281 -4.140625 3.15625 -4.140625 C 3.039062 -4.140625 2.925781 -4.117188 2.8125 -4.078125 C 2.6875 -4.023438 2.566406 -3.957031 2.453125 -3.875 C 2.335938 -3.789062 2.226562 -3.691406 2.125 -3.578125 C 2.082031 -3.523438 2.039062 -3.472656 2 -3.421875 C 1.957031 -3.367188 1.921875 -3.316406 1.890625 -3.265625 L 1.890625 0.234375 L 0.53125 0.234375 L 0.53125 -5.265625 L 1.859375 -5.265625 Z M 1.859375 -4.828125 "/></g></g></g><g fill="#551684" fill-opacity="1"><g transform="translate(53.181776, 16.69355)"><g/></g></g><g fill="#551684" fill-opacity="1"><g transform="translate(56.083861, 16.69355)"><g><path d="M 3.890625 -6.765625 L 3.890625 -1.015625 L 5.046875 -1.015625 L 5.046875 0.234375 L 1.15625 0.234375 L 1.15625 -1.015625 L 2.53125 -1.015625 L 2.53125 -5.171875 L 1.625 -4.484375 L 1.4375 -4.34375 L 1.28125 -4.53125 L 0.8125 -5.1875 L 0.671875 -5.390625 L 0.859375 -5.515625 L 2.859375 -6.96875 L 2.9375 -7.015625 L 3.890625 -7.015625 Z M 3.890625 -6.765625 "/></g></g></g><g fill="#551684" fill-opacity="1"><g transform="translate(61.88802, 16.69355)"><g><path d="M 0.5625 -0.53125 C 0.5625 -0.613281 0.566406 -0.691406 0.578125 -0.765625 C 0.597656 -0.835938 0.625 -0.910156 0.65625 -0.984375 C 0.695312 -1.054688 0.742188 -1.117188 0.796875 -1.171875 C 0.953125 -1.335938 1.171875 -1.421875 1.453125 -1.421875 C 1.679688 -1.421875 1.882812 -1.332031 2.0625 -1.15625 C 2.25 -0.988281 2.34375 -0.78125 2.34375 -0.53125 C 2.34375 -0.269531 2.253906 -0.0546875 2.078125 0.109375 C 1.910156 0.273438 1.703125 0.359375 1.453125 0.359375 C 1.210938 0.359375 1.003906 0.269531 0.828125 0.09375 C 0.648438 -0.0820312 0.5625 -0.289062 0.5625 -0.53125 Z M 0.5625 -0.53125 "/></g></g></g><g fill="#551684" fill-opacity="1"><g transform="translate(64.790105, 16.69355)"><g><path d="M 2.90625 -7.125 C 3.320312 -7.125 3.695312 -7.035156 4.03125 -6.859375 C 4.1875 -6.773438 4.332031 -6.664062 4.46875 -6.53125 C 4.601562 -6.40625 4.726562 -6.257812 4.84375 -6.09375 C 5.039062 -5.769531 5.195312 -5.375 5.3125 -4.90625 C 5.414062 -4.457031 5.46875 -3.945312 5.46875 -3.375 C 5.46875 -2.195312 5.253906 -1.289062 4.828125 -0.65625 C 4.378906 0.0195312 3.734375 0.359375 2.890625 0.359375 C 2.046875 0.359375 1.40625 0.015625 0.96875 -0.671875 C 0.75 -1.003906 0.585938 -1.394531 0.484375 -1.84375 C 0.390625 -2.300781 0.34375 -2.816406 0.34375 -3.390625 C 0.34375 -4.566406 0.554688 -5.472656 0.984375 -6.109375 C 1.429688 -6.785156 2.070312 -7.125 2.90625 -7.125 Z M 2.90625 -5.84375 C 2.882812 -5.84375 2.863281 -5.84375 2.84375 -5.84375 C 2.820312 -5.84375 2.800781 -5.84375 2.78125 -5.84375 C 2.757812 -5.84375 2.734375 -5.835938 2.703125 -5.828125 C 2.679688 -5.828125 2.660156 -5.820312 2.640625 -5.8125 C 2.628906 -5.8125 2.613281 -5.804688 2.59375 -5.796875 C 2.582031 -5.796875 2.566406 -5.789062 2.546875 -5.78125 C 2.523438 -5.78125 2.503906 -5.773438 2.484375 -5.765625 C 2.472656 -5.753906 2.457031 -5.742188 2.4375 -5.734375 C 2.375 -5.703125 2.3125 -5.65625 2.25 -5.59375 C 2.195312 -5.539062 2.144531 -5.46875 2.09375 -5.375 C 1.976562 -5.1875 1.894531 -4.9375 1.84375 -4.625 C 1.769531 -4.300781 1.734375 -3.894531 1.734375 -3.40625 C 1.734375 -2.550781 1.847656 -1.910156 2.078125 -1.484375 C 2.273438 -1.109375 2.550781 -0.921875 2.90625 -0.921875 C 2.988281 -0.921875 3.066406 -0.929688 3.140625 -0.953125 C 3.222656 -0.972656 3.296875 -1 3.359375 -1.03125 C 3.492188 -1.101562 3.613281 -1.222656 3.71875 -1.390625 C 3.769531 -1.484375 3.816406 -1.59375 3.859375 -1.71875 C 3.898438 -1.84375 3.9375 -1.984375 3.96875 -2.140625 C 4.03125 -2.460938 4.0625 -2.867188 4.0625 -3.359375 C 4.0625 -4.222656 3.945312 -4.867188 3.71875 -5.296875 C 3.519531 -5.660156 3.25 -5.84375 2.90625 -5.84375 Z M 2.90625 -5.84375 "/></g></g></g><g fill="#551684" fill-opacity="1"><g transform="translate(70.594264, 16.69355)"><g><path d="M 0.5625 -0.53125 C 0.5625 -0.613281 0.566406 -0.691406 0.578125 -0.765625 C 0.597656 -0.835938 0.625 -0.910156 0.65625 -0.984375 C 0.695312 -1.054688 0.742188 -1.117188 0.796875 -1.171875 C 0.953125 -1.335938 1.171875 -1.421875 1.453125 -1.421875 C 1.679688 -1.421875 1.882812 -1.332031 2.0625 -1.15625 C 2.25 -0.988281 2.34375 -0.78125 2.34375 -0.53125 C 2.34375 -0.269531 2.253906 -0.0546875 2.078125 0.109375 C 1.910156 0.273438 1.703125 0.359375 1.453125 0.359375 C 1.210938 0.359375 1.003906 0.269531 0.828125 0.09375 C 0.648438 -0.0820312 0.5625 -0.289062 0.5625 -0.53125 Z M 0.5625 -0.53125 "/></g></g></g><g fill="#551684" fill-opacity="1"><g transform="translate(73.496349, 16.69355)"><g><path d="M 2.90625 -7.125 C 3.320312 -7.125 3.695312 -7.035156 4.03125 -6.859375 C 4.1875 -6.773438 4.332031 -6.664062 4.46875 -6.53125 C 4.601562 -6.40625 4.726562 -6.257812 4.84375 -6.09375 C 5.039062 -5.769531 5.195312 -5.375 5.3125 -4.90625 C 5.414062 -4.457031 5.46875 -3.945312 5.46875 -3.375 C 5.46875 -2.195312 5.253906 -1.289062 4.828125 -0.65625 C 4.378906 0.0195312 3.734375 0.359375 2.890625 0.359375 C 2.046875 0.359375 1.40625 0.015625 0.96875 -0.671875 C 0.75 -1.003906 0.585938 -1.394531 0.484375 -1.84375 C 0.390625 -2.300781 0.34375 -2.816406 0.34375 -3.390625 C 0.34375 -4.566406 0.554688 -5.472656 0.984375 -6.109375 C 1.429688 -6.785156 2.070312 -7.125 2.90625 -7.125 Z M 2.90625 -5.84375 C 2.882812 -5.84375 2.863281 -5.84375 2.84375 -5.84375 C 2.820312 -5.84375 2.800781 -5.84375 2.78125 -5.84375 C 2.757812 -5.84375 2.734375 -5.835938 2.703125 -5.828125 C 2.679688 -5.828125 2.660156 -5.820312 2.640625 -5.8125 C 2.628906 -5.8125 2.613281 -5.804688 2.59375 -5.796875 C 2.582031 -5.796875 2.566406 -5.789062 2.546875 -5.78125 C 2.523438 -5.78125 2.503906 -5.773438 2.484375 -5.765625 C 2.472656 -5.753906 2.457031 -5.742188 2.4375 -5.734375 C 2.375 -5.703125 2.3125 -5.65625 2.25 -5.59375 C 2.195312 -5.539062 2.144531 -5.46875 2.09375 -5.375 C 1.976562 -5.1875 1.894531 -4.9375 1.84375 -4.625 C 1.769531 -4.300781 1.734375 -3.894531 1.734375 -3.40625 C 1.734375 -2.550781 1.847656 -1.910156 2.078125 -1.484375 C 2.273438 -1.109375 2.550781 -0.921875 2.90625 -0.921875 C 2.988281 -0.921875 3.066406 -0.929688 3.140625 -0.953125 C 3.222656 -0.972656 3.296875 -1 3.359375 -1.03125 C 3.492188 -1.101562 3.613281 -1.222656 3.71875 -1.390625 C 3.769531 -1.484375 3.816406 -1.59375 3.859375 -1.71875 C 3.898438 -1.84375 3.9375 -1.984375 3.96875 -2.140625 C 4.03125 -2.460938 4.0625 -2.867188 4.0625 -3.359375 C 4.0625 -4.222656 3.945312 -4.867188 3.71875 -5.296875 C 3.519531 -5.660156 3.25 -5.84375 2.90625 -5.84375 Z M 2.90625 -5.84375 "/></g></g></g></svg>