<svg xmlns="http://www.w3.org/2000/svg" xmlns:xlink="http://www.w3.org/1999/xlink" width="300" zoomAndPan="magnify" viewBox="0 0 224.87999 74.999997" height="100" preserveAspectRatio="xMidYMid meet" version="1.0"><defs><g/><clipPath id="87711f6159"><path d="M 30.1875 10.257812 L 209 10.257812 L 209 60.347656 L 30.1875 60.347656 Z M 30.1875 10.257812 " clip-rule="nonzero"/></clipPath><clipPath id="a150daec99"><path d="M 55.230469 10.257812 L 183.792969 10.257812 C 190.433594 10.257812 196.804688 12.894531 201.5 17.59375 C 206.199219 22.289062 208.835938 28.660156 208.835938 35.300781 C 208.835938 41.945312 206.199219 48.3125 201.5 53.011719 C 196.804688 57.707031 190.433594 60.347656 183.792969 60.347656 L 55.230469 60.347656 C 48.589844 60.347656 42.21875 57.707031 37.519531 53.011719 C 32.824219 48.3125 30.1875 41.945312 30.1875 35.300781 C 30.1875 28.660156 32.824219 22.289062 37.519531 17.59375 C 42.21875 12.894531 48.589844 10.257812 55.230469 10.257812 Z M 55.230469 10.257812 " clip-rule="nonzero"/></clipPath><clipPath id="ecfa621a9d"><path d="M 44 26 L 64 26 L 64 44.59375 L 44 44.59375 Z M 44 26 " clip-rule="nonzero"/></clipPath></defs><g clip-path="url(#87711f6159)"><g clip-path="url(#a150daec99)"><path fill="#f3abff" d="M 30.1875 10.257812 L 208.820312 10.257812 L 208.820312 60.347656 L 30.1875 60.347656 Z M 30.1875 10.257812 " fill-opacity="1" fill-rule="nonzero"/></g></g><g fill="#551684" fill-opacity="1"><g transform="translate(68.976571, 41.299471)"><g><path d="M 0.03125 -14.109375 L 1.921875 -14.84375 L 2.40625 -15.046875 L 2.578125 -14.5625 L 6.546875 -3.578125 L 10.546875 -14.5 L 10.71875 -14.96875 L 11.203125 -14.78125 L 12.9375 -14.109375 L 13.40625 -13.9375 L 13.21875 -13.46875 L 8.046875 0.1875 L 7.921875 0.5 L 5.078125 0.5 L 4.953125 0.1875 L -0.25 -13.46875 L -0.421875 -13.9375 Z M 0.03125 -14.109375 "/></g></g></g><g fill="#551684" fill-opacity="1"><g transform="translate(81.910187, 41.299471)"><g><path d="M 3.375 -4 C 3.519531 -3.40625 3.773438 -2.925781 4.140625 -2.5625 C 4.617188 -2.101562 5.253906 -1.875 6.046875 -1.875 C 6.234375 -1.875 6.414062 -1.878906 6.59375 -1.890625 C 6.769531 -1.910156 6.9375 -1.929688 7.09375 -1.953125 C 7.257812 -1.984375 7.414062 -2.019531 7.5625 -2.0625 C 7.707031 -2.101562 7.851562 -2.144531 8 -2.1875 C 8.15625 -2.238281 8.300781 -2.289062 8.4375 -2.34375 C 8.582031 -2.394531 8.726562 -2.457031 8.875 -2.53125 L 9.40625 -2.765625 L 9.5625 -2.203125 L 9.984375 -0.640625 L 10.109375 -0.21875 L 9.71875 -0.046875 C 9.195312 0.203125 8.613281 0.394531 7.96875 0.53125 C 7.644531 0.601562 7.300781 0.65625 6.9375 0.6875 C 6.582031 0.726562 6.210938 0.75 5.828125 0.75 C 5.003906 0.75 4.253906 0.613281 3.578125 0.34375 C 2.898438 0.0625 2.328125 -0.34375 1.859375 -0.875 C 1.390625 -1.382812 1.023438 -2.015625 0.765625 -2.765625 C 0.523438 -3.492188 0.40625 -4.320312 0.40625 -5.25 C 0.40625 -6.09375 0.523438 -6.878906 0.765625 -7.609375 C 0.898438 -7.960938 1.054688 -8.300781 1.234375 -8.625 C 1.410156 -8.957031 1.613281 -9.253906 1.84375 -9.515625 C 2.300781 -10.054688 2.851562 -10.484375 3.5 -10.796875 C 4.144531 -11.109375 4.863281 -11.265625 5.65625 -11.265625 C 5.925781 -11.265625 6.1875 -11.242188 6.4375 -11.203125 C 6.6875 -11.171875 6.925781 -11.125 7.15625 -11.0625 C 7.394531 -11.007812 7.625 -10.9375 7.84375 -10.84375 C 8.164062 -10.6875 8.457031 -10.507812 8.71875 -10.3125 C 8.988281 -10.125 9.226562 -9.898438 9.4375 -9.640625 C 9.851562 -9.140625 10.171875 -8.566406 10.390625 -7.921875 C 10.484375 -7.597656 10.554688 -7.265625 10.609375 -6.921875 C 10.671875 -6.578125 10.703125 -6.234375 10.703125 -5.890625 C 10.703125 -5.785156 10.703125 -5.6875 10.703125 -5.59375 C 10.703125 -5.5 10.695312 -5.398438 10.6875 -5.296875 C 10.675781 -5.203125 10.671875 -5.109375 10.671875 -5.015625 C 10.671875 -4.921875 10.664062 -4.828125 10.65625 -4.734375 C 10.65625 -4.648438 10.648438 -4.5625 10.640625 -4.46875 L 10.59375 -4 Z M 5.625 -8.671875 C 4.976562 -8.671875 4.453125 -8.457031 4.046875 -8.03125 C 3.878906 -7.851562 3.734375 -7.632812 3.609375 -7.375 C 3.492188 -7.125 3.40625 -6.828125 3.34375 -6.484375 L 7.984375 -6.484375 C 7.921875 -7.128906 7.71875 -7.632812 7.375 -8 C 6.957031 -8.445312 6.375 -8.671875 5.625 -8.671875 Z M 5.625 -8.671875 "/></g></g></g><g fill="#551684" fill-opacity="1"><g transform="translate(92.903761, 41.299471)"><g><path d="M 7.109375 -8.296875 C 6.921875 -8.367188 6.6875 -8.40625 6.40625 -8.40625 C 6.257812 -8.40625 6.109375 -8.390625 5.953125 -8.359375 C 5.804688 -8.328125 5.660156 -8.273438 5.515625 -8.203125 C 5.222656 -8.085938 4.96875 -7.894531 4.75 -7.625 C 4.625 -7.488281 4.515625 -7.328125 4.421875 -7.140625 C 4.328125 -6.960938 4.242188 -6.765625 4.171875 -6.546875 C 4.015625 -6.085938 3.9375 -5.539062 3.9375 -4.90625 L 3.9375 0.5 L 1.109375 0.5 L 1.109375 -11.015625 L 3.875 -11.015625 L 3.875 -10.03125 C 4 -10.144531 4.128906 -10.257812 4.265625 -10.375 C 4.578125 -10.644531 4.941406 -10.859375 5.359375 -11.015625 C 5.578125 -11.097656 5.800781 -11.160156 6.03125 -11.203125 C 6.257812 -11.242188 6.5 -11.265625 6.75 -11.265625 C 6.96875 -11.265625 7.1875 -11.25 7.40625 -11.21875 C 7.632812 -11.207031 7.832031 -11.175781 8 -11.125 L 8.484375 -10.984375 L 8.34375 -10.5 L 7.796875 -8.609375 L 7.640625 -8.0625 Z M 7.109375 -8.296875 "/></g></g></g><g fill="#551684" fill-opacity="1"><g transform="translate(100.967062, 41.299471)"><g><path d="M 1.8125 -2.75 C 2.113281 -2.476562 2.5 -2.265625 2.96875 -2.109375 C 3.445312 -1.929688 3.960938 -1.84375 4.515625 -1.84375 C 5.171875 -1.84375 5.644531 -1.9375 5.9375 -2.125 C 6.164062 -2.28125 6.28125 -2.460938 6.28125 -2.671875 C 6.28125 -2.804688 6.253906 -2.925781 6.203125 -3.03125 C 6.160156 -3.132812 6.082031 -3.242188 5.96875 -3.359375 C 5.800781 -3.492188 5.570312 -3.628906 5.28125 -3.765625 C 5.195312 -3.785156 5.109375 -3.816406 5.015625 -3.859375 C 4.921875 -3.898438 4.816406 -3.941406 4.703125 -3.984375 C 4.597656 -4.023438 4.488281 -4.066406 4.375 -4.109375 C 4.257812 -4.160156 4.132812 -4.207031 4 -4.25 C 3.65625 -4.363281 3.335938 -4.488281 3.046875 -4.625 C 2.753906 -4.757812 2.484375 -4.90625 2.234375 -5.0625 C 1.992188 -5.21875 1.78125 -5.382812 1.59375 -5.5625 C 1.300781 -5.84375 1.078125 -6.175781 0.921875 -6.5625 C 0.773438 -6.957031 0.703125 -7.390625 0.703125 -7.859375 C 0.703125 -8.347656 0.8125 -8.804688 1.03125 -9.234375 C 1.113281 -9.367188 1.203125 -9.5 1.296875 -9.625 C 1.390625 -9.757812 1.488281 -9.882812 1.59375 -10 C 1.707031 -10.113281 1.832031 -10.21875 1.96875 -10.3125 C 2.351562 -10.625 2.820312 -10.859375 3.375 -11.015625 C 3.914062 -11.179688 4.53125 -11.265625 5.21875 -11.265625 C 5.945312 -11.265625 6.59375 -11.191406 7.15625 -11.046875 C 7.4375 -10.960938 7.703125 -10.875 7.953125 -10.78125 C 8.203125 -10.6875 8.4375 -10.578125 8.65625 -10.453125 L 9.0625 -10.25 L 8.921875 -9.84375 L 8.40625 -8.34375 L 8.203125 -7.765625 L 7.65625 -8.0625 C 7.332031 -8.269531 6.960938 -8.429688 6.546875 -8.546875 C 6.117188 -8.671875 5.648438 -8.734375 5.140625 -8.734375 C 4.929688 -8.734375 4.742188 -8.71875 4.578125 -8.6875 C 4.410156 -8.664062 4.265625 -8.628906 4.140625 -8.578125 C 4.023438 -8.535156 3.925781 -8.476562 3.84375 -8.40625 C 3.707031 -8.3125 3.613281 -8.21875 3.5625 -8.125 C 3.519531 -8.039062 3.5 -7.960938 3.5 -7.890625 C 3.5 -7.796875 3.507812 -7.710938 3.53125 -7.640625 C 3.5625 -7.585938 3.625 -7.523438 3.71875 -7.453125 C 3.851562 -7.359375 4.035156 -7.257812 4.265625 -7.15625 C 4.398438 -7.101562 4.546875 -7.046875 4.703125 -6.984375 C 4.859375 -6.921875 5.035156 -6.859375 5.234375 -6.796875 C 5.410156 -6.722656 5.578125 -6.65625 5.734375 -6.59375 C 5.890625 -6.539062 6.039062 -6.484375 6.1875 -6.421875 C 6.332031 -6.359375 6.46875 -6.296875 6.59375 -6.234375 C 6.726562 -6.171875 6.851562 -6.113281 6.96875 -6.0625 C 7.488281 -5.789062 7.910156 -5.503906 8.234375 -5.203125 C 8.566406 -4.859375 8.800781 -4.484375 8.9375 -4.078125 C 9.082031 -3.691406 9.15625 -3.269531 9.15625 -2.8125 C 9.15625 -2.257812 9.035156 -1.753906 8.796875 -1.296875 C 8.554688 -0.847656 8.222656 -0.46875 7.796875 -0.15625 C 7.585938 -0.0078125 7.359375 0.117188 7.109375 0.234375 C 6.859375 0.347656 6.59375 0.445312 6.3125 0.53125 C 5.738281 0.675781 5.117188 0.75 4.453125 0.75 C 3.585938 0.75 2.8125 0.640625 2.125 0.421875 C 1.4375 0.191406 0.863281 -0.09375 0.40625 -0.4375 L 0.0625 -0.703125 L 0.265625 -1.078125 L 1.03125 -2.59375 L 1.3125 -3.171875 Z M 1.8125 -2.75 "/></g></g></g><g fill="#551684" fill-opacity="1"><g transform="translate(110.42476, 41.299471)"><g><path d="M 3.4375 0.5 L 1.109375 0.5 L 1.109375 -11.015625 L 3.9375 -11.015625 L 3.9375 0.5 Z M 2.53125 -11.8125 C 2.039062 -11.8125 1.617188 -11.984375 1.265625 -12.328125 C 0.921875 -12.679688 0.75 -13.101562 0.75 -13.59375 C 0.75 -14.113281 0.910156 -14.535156 1.234375 -14.859375 C 1.566406 -15.191406 2 -15.359375 2.53125 -15.359375 C 2.769531 -15.359375 2.992188 -15.316406 3.203125 -15.234375 C 3.421875 -15.148438 3.613281 -15.019531 3.78125 -14.84375 C 3.957031 -14.675781 4.085938 -14.484375 4.171875 -14.265625 C 4.265625 -14.054688 4.3125 -13.832031 4.3125 -13.59375 C 4.3125 -13.0625 4.144531 -12.628906 3.8125 -12.296875 C 3.476562 -11.972656 3.050781 -11.8125 2.53125 -11.8125 Z M 2.53125 -11.8125 "/></g></g></g><g fill="#551684" fill-opacity="1"><g transform="translate(115.47695, 41.299471)"><g><path d="M 8.921875 -5.25 C 8.921875 -5.726562 8.84375 -6.175781 8.6875 -6.59375 C 8.539062 -7 8.34375 -7.351562 8.09375 -7.65625 C 8 -7.75 7.898438 -7.835938 7.796875 -7.921875 C 7.703125 -8.015625 7.601562 -8.097656 7.5 -8.171875 C 7.394531 -8.253906 7.28125 -8.320312 7.15625 -8.375 C 7 -8.46875 6.820312 -8.535156 6.625 -8.578125 C 6.4375 -8.617188 6.242188 -8.640625 6.046875 -8.640625 C 5.140625 -8.640625 4.4375 -8.347656 3.9375 -7.765625 C 3.425781 -7.160156 3.171875 -6.335938 3.171875 -5.296875 C 3.171875 -4.828125 3.242188 -4.382812 3.390625 -3.96875 C 3.421875 -3.894531 3.445312 -3.820312 3.46875 -3.75 C 3.5 -3.6875 3.53125 -3.617188 3.5625 -3.546875 C 3.601562 -3.484375 3.640625 -3.421875 3.671875 -3.359375 C 3.703125 -3.304688 3.734375 -3.25 3.765625 -3.1875 C 3.804688 -3.132812 3.84375 -3.078125 3.875 -3.015625 C 3.914062 -2.960938 3.96875 -2.914062 4.03125 -2.875 C 4.101562 -2.757812 4.1875 -2.660156 4.28125 -2.578125 C 4.375 -2.492188 4.472656 -2.410156 4.578125 -2.328125 C 4.691406 -2.253906 4.8125 -2.191406 4.9375 -2.140625 C 5.09375 -2.046875 5.265625 -1.976562 5.453125 -1.9375 C 5.640625 -1.894531 5.835938 -1.875 6.046875 -1.875 C 6.503906 -1.875 6.910156 -1.957031 7.265625 -2.125 C 7.429688 -2.207031 7.585938 -2.300781 7.734375 -2.40625 C 7.878906 -2.507812 8.007812 -2.640625 8.125 -2.796875 C 8.382812 -3.078125 8.582031 -3.425781 8.71875 -3.84375 C 8.851562 -4.257812 8.921875 -4.726562 8.921875 -5.25 Z M 0.296875 -5.25 C 0.296875 -6.164062 0.445312 -7 0.75 -7.75 C 1.039062 -8.488281 1.441406 -9.113281 1.953125 -9.625 C 2.472656 -10.144531 3.082031 -10.550781 3.78125 -10.84375 C 4.476562 -11.125 5.234375 -11.265625 6.046875 -11.265625 C 6.242188 -11.265625 6.4375 -11.253906 6.625 -11.234375 C 6.820312 -11.210938 7.015625 -11.179688 7.203125 -11.140625 C 7.390625 -11.109375 7.570312 -11.066406 7.75 -11.015625 C 7.9375 -10.960938 8.117188 -10.90625 8.296875 -10.84375 C 8.640625 -10.707031 8.960938 -10.535156 9.265625 -10.328125 C 9.566406 -10.128906 9.851562 -9.898438 10.125 -9.640625 C 10.632812 -9.117188 11.039062 -8.488281 11.34375 -7.75 C 11.632812 -7.019531 11.78125 -6.203125 11.78125 -5.296875 C 11.78125 -4.390625 11.640625 -3.566406 11.359375 -2.828125 C 11.066406 -2.085938 10.664062 -1.457031 10.15625 -0.9375 C 9.894531 -0.664062 9.609375 -0.425781 9.296875 -0.21875 C 8.984375 -0.0078125 8.65625 0.171875 8.3125 0.328125 C 7.613281 0.609375 6.859375 0.75 6.046875 0.75 C 5.640625 0.75 5.242188 0.710938 4.859375 0.640625 C 4.472656 0.566406 4.109375 0.453125 3.765625 0.296875 C 3.054688 0.00390625 2.445312 -0.40625 1.9375 -0.9375 C 1.425781 -1.46875 1.023438 -2.101562 0.734375 -2.84375 C 0.441406 -3.570312 0.296875 -4.375 0.296875 -5.25 Z M 0.296875 -5.25 "/></g></g></g><g fill="#551684" fill-opacity="1"><g transform="translate(127.56179, 41.299471)"><g><path d="M 3.875 -10.09375 C 3.988281 -10.195312 4.097656 -10.289062 4.203125 -10.375 C 4.316406 -10.457031 4.429688 -10.53125 4.546875 -10.59375 C 5.222656 -11.039062 6.015625 -11.265625 6.921875 -11.265625 C 7.578125 -11.265625 8.160156 -11.160156 8.671875 -10.953125 C 9.179688 -10.742188 9.613281 -10.429688 9.96875 -10.015625 C 10.625 -9.203125 10.953125 -8.148438 10.953125 -6.859375 L 10.953125 0.5 L 8.125 0.5 L 8.125 -6.65625 C 8.125 -6.882812 8.109375 -7.09375 8.078125 -7.28125 C 8.046875 -7.46875 8 -7.632812 7.9375 -7.78125 C 7.875 -7.925781 7.796875 -8.054688 7.703125 -8.171875 C 7.617188 -8.273438 7.523438 -8.363281 7.421875 -8.4375 C 7.328125 -8.507812 7.210938 -8.5625 7.078125 -8.59375 C 6.941406 -8.632812 6.785156 -8.65625 6.609375 -8.65625 C 6.367188 -8.65625 6.128906 -8.609375 5.890625 -8.515625 C 5.628906 -8.421875 5.378906 -8.285156 5.140625 -8.109375 C 4.890625 -7.921875 4.660156 -7.710938 4.453125 -7.484375 C 4.367188 -7.367188 4.28125 -7.253906 4.1875 -7.140625 C 4.09375 -7.023438 4.007812 -6.914062 3.9375 -6.8125 L 3.9375 0.5 L 1.109375 0.5 L 1.109375 -11.015625 L 3.875 -11.015625 Z M 3.875 -10.09375 "/></g></g></g><g fill="#551684" fill-opacity="1"><g transform="translate(139.525397, 41.299471)"><g/></g></g><g fill="#551684" fill-opacity="1"><g transform="translate(145.588038, 41.299471)"><g><path d="M 8.125 -14.15625 L 8.125 -2.125 L 10.53125 -2.125 L 10.53125 0.5 L 2.40625 0.5 L 2.40625 -2.125 L 5.296875 -2.125 L 5.296875 -10.8125 L 3.390625 -9.375 L 3 -9.078125 L 2.6875 -9.484375 L 1.703125 -10.84375 L 1.390625 -11.265625 L 1.796875 -11.546875 L 5.984375 -14.5625 L 6.125 -14.65625 L 8.125 -14.65625 Z M 8.125 -14.15625 "/></g></g></g><g fill="#551684" fill-opacity="1"><g transform="translate(157.713298, 41.299471)"><g><path d="M 1.171875 -1.109375 C 1.171875 -1.285156 1.1875 -1.453125 1.21875 -1.609375 C 1.257812 -1.765625 1.316406 -1.914062 1.390625 -2.0625 C 1.460938 -2.207031 1.554688 -2.335938 1.671875 -2.453125 C 1.992188 -2.796875 2.445312 -2.96875 3.03125 -2.96875 C 3.519531 -2.96875 3.953125 -2.785156 4.328125 -2.421875 C 4.703125 -2.054688 4.890625 -1.617188 4.890625 -1.109375 C 4.890625 -0.554688 4.707031 -0.113281 4.34375 0.21875 C 4 0.570312 3.5625 0.75 3.03125 0.75 C 2.53125 0.75 2.09375 0.5625 1.71875 0.1875 C 1.351562 -0.175781 1.171875 -0.609375 1.171875 -1.109375 Z M 1.171875 -1.109375 "/></g></g></g><g fill="#551684" fill-opacity="1"><g transform="translate(163.775939, 41.299471)"><g><path d="M 6.078125 -14.90625 C 6.941406 -14.90625 7.71875 -14.710938 8.40625 -14.328125 C 8.75 -14.160156 9.0625 -13.941406 9.34375 -13.671875 C 9.625 -13.398438 9.878906 -13.085938 10.109375 -12.734375 C 10.535156 -12.066406 10.863281 -11.242188 11.09375 -10.265625 C 11.3125 -9.328125 11.421875 -8.257812 11.421875 -7.0625 C 11.421875 -4.601562 10.976562 -2.707031 10.09375 -1.375 C 9.144531 0.0390625 7.796875 0.75 6.046875 0.75 C 4.273438 0.75 2.929688 0.0351562 2.015625 -1.390625 C 1.578125 -2.097656 1.25 -2.921875 1.03125 -3.859375 C 0.8125 -4.804688 0.703125 -5.882812 0.703125 -7.09375 C 0.703125 -9.550781 1.148438 -11.445312 2.046875 -12.78125 C 2.984375 -14.195312 4.328125 -14.90625 6.078125 -14.90625 Z M 6.0625 -12.234375 C 6.019531 -12.234375 5.972656 -12.234375 5.921875 -12.234375 C 5.878906 -12.234375 5.835938 -12.226562 5.796875 -12.21875 C 5.753906 -12.21875 5.707031 -12.210938 5.65625 -12.203125 C 5.613281 -12.191406 5.570312 -12.179688 5.53125 -12.171875 C 5.5 -12.160156 5.460938 -12.148438 5.421875 -12.140625 C 5.390625 -12.128906 5.351562 -12.113281 5.3125 -12.09375 C 5.269531 -12.082031 5.234375 -12.066406 5.203125 -12.046875 C 5.171875 -12.035156 5.132812 -12.015625 5.09375 -11.984375 C 4.957031 -11.921875 4.828125 -11.828125 4.703125 -11.703125 C 4.585938 -11.585938 4.476562 -11.429688 4.375 -11.234375 C 4.144531 -10.847656 3.96875 -10.328125 3.84375 -9.671875 C 3.707031 -8.992188 3.640625 -8.140625 3.640625 -7.109375 C 3.640625 -5.316406 3.875 -3.976562 4.34375 -3.09375 C 4.757812 -2.3125 5.332031 -1.921875 6.0625 -1.921875 C 6.25 -1.921875 6.421875 -1.941406 6.578125 -1.984375 C 6.734375 -2.023438 6.882812 -2.082031 7.03125 -2.15625 C 7.3125 -2.3125 7.554688 -2.5625 7.765625 -2.90625 C 7.890625 -3.09375 7.992188 -3.316406 8.078125 -3.578125 C 8.160156 -3.847656 8.234375 -4.148438 8.296875 -4.484375 C 8.421875 -5.160156 8.484375 -6.007812 8.484375 -7.03125 C 8.484375 -8.820312 8.25 -10.164062 7.78125 -11.0625 C 7.363281 -11.84375 6.789062 -12.234375 6.0625 -12.234375 Z M 6.0625 -12.234375 "/></g></g></g><g fill="#551684" fill-opacity="1"><g transform="translate(175.901198, 41.299471)"><g><path d="M 1.171875 -1.109375 C 1.171875 -1.285156 1.1875 -1.453125 1.21875 -1.609375 C 1.257812 -1.765625 1.316406 -1.914062 1.390625 -2.0625 C 1.460938 -2.207031 1.554688 -2.335938 1.671875 -2.453125 C 1.992188 -2.796875 2.445312 -2.96875 3.03125 -2.96875 C 3.519531 -2.96875 3.953125 -2.785156 4.328125 -2.421875 C 4.703125 -2.054688 4.890625 -1.617188 4.890625 -1.109375 C 4.890625 -0.554688 4.707031 -0.113281 4.34375 0.21875 C 4 0.570312 3.5625 0.75 3.03125 0.75 C 2.53125 0.75 2.09375 0.5625 1.71875 0.1875 C 1.351562 -0.175781 1.171875 -0.609375 1.171875 -1.109375 Z M 1.171875 -1.109375 "/></g></g></g><g fill="#551684" fill-opacity="1"><g transform="translate(181.96384, 41.299471)"><g><path d="M 6.078125 -14.90625 C 6.941406 -14.90625 7.71875 -14.710938 8.40625 -14.328125 C 8.75 -14.160156 9.0625 -13.941406 9.34375 -13.671875 C 9.625 -13.398438 9.878906 -13.085938 10.109375 -12.734375 C 10.535156 -12.066406 10.863281 -11.242188 11.09375 -10.265625 C 11.3125 -9.328125 11.421875 -8.257812 11.421875 -7.0625 C 11.421875 -4.601562 10.976562 -2.707031 10.09375 -1.375 C 9.144531 0.0390625 7.796875 0.75 6.046875 0.75 C 4.273438 0.75 2.929688 0.0351562 2.015625 -1.390625 C 1.578125 -2.097656 1.25 -2.921875 1.03125 -3.859375 C 0.8125 -4.804688 0.703125 -5.882812 0.703125 -7.09375 C 0.703125 -9.550781 1.148438 -11.445312 2.046875 -12.78125 C 2.984375 -14.195312 4.328125 -14.90625 6.078125 -14.90625 Z M 6.0625 -12.234375 C 6.019531 -12.234375 5.972656 -12.234375 5.921875 -12.234375 C 5.878906 -12.234375 5.835938 -12.226562 5.796875 -12.21875 C 5.753906 -12.21875 5.707031 -12.210938 5.65625 -12.203125 C 5.613281 -12.191406 5.570312 -12.179688 5.53125 -12.171875 C 5.5 -12.160156 5.460938 -12.148438 5.421875 -12.140625 C 5.390625 -12.128906 5.351562 -12.113281 5.3125 -12.09375 C 5.269531 -12.082031 5.234375 -12.066406 5.203125 -12.046875 C 5.171875 -12.035156 5.132812 -12.015625 5.09375 -11.984375 C 4.957031 -11.921875 4.828125 -11.828125 4.703125 -11.703125 C 4.585938 -11.585938 4.476562 -11.429688 4.375 -11.234375 C 4.144531 -10.847656 3.96875 -10.328125 3.84375 -9.671875 C 3.707031 -8.992188 3.640625 -8.140625 3.640625 -7.109375 C 3.640625 -5.316406 3.875 -3.976562 4.34375 -3.09375 C 4.757812 -2.3125 5.332031 -1.921875 6.0625 -1.921875 C 6.25 -1.921875 6.421875 -1.941406 6.578125 -1.984375 C 6.734375 -2.023438 6.882812 -2.082031 7.03125 -2.15625 C 7.3125 -2.3125 7.554688 -2.5625 7.765625 -2.90625 C 7.890625 -3.09375 7.992188 -3.316406 8.078125 -3.578125 C 8.160156 -3.847656 8.234375 -4.148438 8.296875 -4.484375 C 8.421875 -5.160156 8.484375 -6.007812 8.484375 -7.03125 C 8.484375 -8.820312 8.25 -10.164062 7.78125 -11.0625 C 7.363281 -11.84375 6.789062 -12.234375 6.0625 -12.234375 Z M 6.0625 -12.234375 "/></g></g></g><g clip-path="url(#ecfa621a9d)"><path fill="#551684" d="M 52.609375 26.398438 C 48.347656 26.871094 44.875 30.308594 44.359375 34.566406 C 44.292969 35.101562 44.273438 35.636719 44.300781 36.175781 C 44.324219 36.714844 44.398438 37.25 44.515625 37.777344 C 44.632812 38.300781 44.792969 38.816406 44.996094 39.3125 C 45.203125 39.8125 45.449219 40.292969 45.738281 40.746094 C 46.023438 41.203125 46.347656 41.632812 46.710938 42.035156 C 47.070312 42.433594 47.464844 42.800781 47.886719 43.136719 C 48.3125 43.46875 48.761719 43.765625 49.238281 44.019531 C 49.710938 44.277344 50.203125 44.492188 50.714844 44.664062 C 51.1875 44.738281 51.335938 44.445312 51.335938 44.191406 L 51.335938 42.605469 C 48.734375 43.167969 48.179688 41.34375 48.179688 41.34375 C 47.75 40.253906 47.136719 39.964844 47.136719 39.964844 C 46.28125 39.382812 47.203125 39.402344 47.203125 39.402344 C 48.144531 39.46875 48.640625 40.367188 48.640625 40.367188 C 49.457031 41.796875 50.839844 41.375 51.375 41.148438 C 51.460938 40.539062 51.707031 40.125 51.96875 39.890625 C 49.878906 39.652344 47.691406 38.847656 47.691406 35.265625 C 47.691406 34.222656 48.046875 33.386719 48.660156 32.71875 C 48.566406 32.484375 48.234375 31.507812 48.753906 30.238281 C 48.753906 30.238281 49.542969 29.984375 51.335938 31.199219 C 52.902344 30.777344 54.46875 30.777344 56.035156 31.199219 C 57.832031 29.984375 58.621094 30.238281 58.621094 30.238281 C 59.136719 31.507812 58.808594 32.484375 58.714844 32.71875 C 59.324219 33.386719 59.679688 34.222656 59.679688 35.265625 C 59.679688 38.855469 57.480469 39.644531 55.386719 39.878906 C 55.726562 40.171875 56.035156 40.746094 56.035156 41.617188 L 56.035156 44.191406 C 56.035156 44.445312 56.183594 44.746094 56.664062 44.664062 C 57.210938 44.480469 57.734375 44.25 58.238281 43.96875 C 58.742188 43.6875 59.21875 43.367188 59.664062 43 C 60.105469 42.632812 60.515625 42.226562 60.882812 41.785156 C 61.253906 41.34375 61.582031 40.875 61.863281 40.371094 C 62.148438 39.871094 62.382812 39.347656 62.570312 38.804688 C 62.757812 38.257812 62.894531 37.699219 62.980469 37.128906 C 63.0625 36.5625 63.097656 35.988281 63.078125 35.414062 C 63.054688 34.835938 62.984375 34.265625 62.859375 33.707031 C 62.734375 33.144531 62.558594 32.597656 62.332031 32.066406 C 62.109375 31.535156 61.835938 31.03125 61.519531 30.550781 C 61.199219 30.070312 60.839844 29.621094 60.441406 29.207031 C 60.039062 28.792969 59.605469 28.417969 59.136719 28.085938 C 58.667969 27.75 58.171875 27.460938 57.648438 27.21875 C 57.125 26.976562 56.585938 26.78125 56.027344 26.636719 C 55.472656 26.492188 54.90625 26.402344 54.328125 26.363281 C 53.753906 26.320312 53.179688 26.335938 52.609375 26.398438 Z M 52.609375 26.398438 " fill-opacity="1" fill-rule="nonzero"/></g></svg>