<svg xmlns="http://www.w3.org/2000/svg" xmlns:xlink="http://www.w3.org/1999/xlink" width="115" zoomAndPan="magnify" viewBox="0 0 86.25 30.000001" height="40" preserveAspectRatio="xMidYMid meet" version="1.0"><defs><g/><clipPath id="cd9c6f413d"><path d="M 1.027344 4.769531 L 84.496094 4.769531 L 84.496094 23.796875 L 1.027344 23.796875 Z M 1.027344 4.769531 " clip-rule="nonzero"/></clipPath><clipPath id="c05a203b18"><path d="M 10.542969 4.769531 L 74.980469 4.769531 C 80.234375 4.769531 84.496094 9.027344 84.496094 14.28125 C 84.496094 19.539062 80.234375 23.796875 74.980469 23.796875 L 10.542969 23.796875 C 5.289062 23.796875 1.027344 19.539062 1.027344 14.28125 C 1.027344 9.027344 5.289062 4.769531 10.542969 4.769531 Z M 10.542969 4.769531 " clip-rule="nonzero"/></clipPath><clipPath id="4fc7502a57"><path d="M 6.640625 9 L 16.800781 9 L 16.800781 18.386719 L 6.640625 18.386719 Z M 6.640625 9 " clip-rule="nonzero"/></clipPath></defs><g clip-path="url(#cd9c6f413d)"><g clip-path="url(#c05a203b18)"><path fill="#f3abff" d="M 1.027344 4.769531 L 84.503906 4.769531 L 84.503906 23.796875 L 1.027344 23.796875 Z M 1.027344 4.769531 " fill-opacity="1" fill-rule="nonzero"/></g></g><g clip-path="url(#4fc7502a57)"><path fill="#551684" d="M 11.175781 9.234375 C 8.980469 9.476562 7.191406 11.246094 6.925781 13.4375 C 6.859375 13.992188 6.882812 14.546875 7.007812 15.089844 C 7.128906 15.636719 7.335938 16.148438 7.636719 16.621094 C 7.933594 17.097656 8.304688 17.507812 8.742188 17.851562 C 9.183594 18.199219 9.667969 18.460938 10.199219 18.640625 C 10.441406 18.675781 10.519531 18.527344 10.519531 18.398438 L 10.519531 17.578125 C 9.179688 17.871094 8.894531 16.929688 8.894531 16.929688 C 8.671875 16.367188 8.355469 16.21875 8.355469 16.21875 C 7.917969 15.917969 8.390625 15.929688 8.390625 15.929688 C 8.875 15.964844 9.132812 16.425781 9.132812 16.425781 C 9.554688 17.164062 10.265625 16.945312 10.539062 16.828125 C 10.582031 16.515625 10.710938 16.300781 10.84375 16.179688 C 9.769531 16.058594 8.644531 15.644531 8.644531 13.800781 C 8.644531 13.261719 8.828125 12.832031 9.140625 12.488281 C 9.09375 12.367188 8.921875 11.863281 9.1875 11.210938 C 9.1875 11.210938 9.597656 11.078125 10.519531 11.703125 C 11.328125 11.488281 12.132812 11.488281 12.941406 11.703125 C 13.863281 11.078125 14.269531 11.210938 14.269531 11.210938 C 14.535156 11.863281 14.367188 12.367188 14.320312 12.488281 C 14.632812 12.832031 14.816406 13.261719 14.816406 13.800781 C 14.816406 15.648438 13.683594 16.054688 12.605469 16.175781 C 12.78125 16.324219 12.941406 16.621094 12.941406 17.070312 L 12.941406 18.398438 C 12.941406 18.527344 13.015625 18.683594 13.265625 18.640625 C 13.832031 18.449219 14.347656 18.164062 14.808594 17.78125 C 15.269531 17.402344 15.648438 16.949219 15.941406 16.429688 C 16.238281 15.910156 16.429688 15.351562 16.515625 14.757812 C 16.605469 14.167969 16.585938 13.578125 16.453125 12.996094 C 16.324219 12.410156 16.09375 11.871094 15.765625 11.371094 C 15.433594 10.871094 15.023438 10.449219 14.539062 10.101562 C 14.050781 9.753906 13.515625 9.503906 12.9375 9.355469 C 12.355469 9.207031 11.769531 9.164062 11.175781 9.234375 Z M 11.175781 9.234375 " fill-opacity="1" fill-rule="nonzero"/></g><g fill="#551684" fill-opacity="1"><g transform="translate(19.836009, 17.38847)"><g><path d="M 0.03125 -6.65625 L 0.90625 -7 L 1.140625 -7.09375 L 1.21875 -6.859375 L 3.09375 -1.6875 L 4.984375 -6.828125 L 5.0625 -7.046875 L 5.28125 -6.96875 L 6.109375 -6.65625 L 6.328125 -6.5625 L 6.234375 -6.34375 L 3.796875 0.078125 L 3.75 0.234375 L 2.40625 0.234375 L 2.34375 0.078125 L -0.109375 -6.34375 L -0.1875 -6.5625 Z M 0.03125 -6.65625 "/></g></g></g><g fill="#551684" fill-opacity="1"><g transform="translate(25.939293, 17.38847)"><g><path d="M 1.59375 -1.890625 C 1.664062 -1.609375 1.785156 -1.378906 1.953125 -1.203125 C 2.171875 -0.992188 2.46875 -0.890625 2.84375 -0.890625 C 2.9375 -0.890625 3.023438 -0.890625 3.109375 -0.890625 C 3.191406 -0.898438 3.269531 -0.910156 3.34375 -0.921875 C 3.414062 -0.929688 3.488281 -0.945312 3.5625 -0.96875 C 3.632812 -0.988281 3.703125 -1.007812 3.765625 -1.03125 C 3.835938 -1.050781 3.90625 -1.070312 3.96875 -1.09375 C 4.039062 -1.125 4.113281 -1.15625 4.1875 -1.1875 L 4.4375 -1.3125 L 4.515625 -1.03125 L 4.703125 -0.3125 L 4.765625 -0.109375 L 4.578125 -0.015625 C 4.335938 0.0976562 4.0625 0.1875 3.75 0.25 C 3.601562 0.289062 3.441406 0.316406 3.265625 0.328125 C 3.097656 0.347656 2.925781 0.359375 2.75 0.359375 C 2.351562 0.359375 2 0.289062 1.6875 0.15625 C 1.363281 0.03125 1.09375 -0.15625 0.875 -0.40625 C 0.65625 -0.644531 0.484375 -0.945312 0.359375 -1.3125 C 0.242188 -1.65625 0.1875 -2.046875 0.1875 -2.484375 C 0.1875 -2.867188 0.242188 -3.234375 0.359375 -3.578125 C 0.421875 -3.753906 0.492188 -3.914062 0.578125 -4.0625 C 0.660156 -4.21875 0.757812 -4.359375 0.875 -4.484375 C 1.082031 -4.742188 1.34375 -4.945312 1.65625 -5.09375 C 1.957031 -5.238281 2.296875 -5.3125 2.671875 -5.3125 C 2.796875 -5.3125 2.914062 -5.300781 3.03125 -5.28125 C 3.15625 -5.269531 3.269531 -5.25 3.375 -5.21875 C 3.488281 -5.1875 3.597656 -5.148438 3.703125 -5.109375 C 3.847656 -5.035156 3.984375 -4.953125 4.109375 -4.859375 C 4.234375 -4.773438 4.347656 -4.671875 4.453125 -4.546875 C 4.648438 -4.304688 4.800781 -4.035156 4.90625 -3.734375 C 4.945312 -3.578125 4.976562 -3.414062 5 -3.25 C 5.03125 -3.09375 5.046875 -2.9375 5.046875 -2.78125 C 5.046875 -2.726562 5.046875 -2.679688 5.046875 -2.640625 C 5.046875 -2.597656 5.039062 -2.550781 5.03125 -2.5 C 5.03125 -2.457031 5.03125 -2.410156 5.03125 -2.359375 C 5.03125 -2.316406 5.023438 -2.273438 5.015625 -2.234375 C 5.015625 -2.191406 5.015625 -2.148438 5.015625 -2.109375 L 5 -1.890625 Z M 2.65625 -4.09375 C 2.34375 -4.09375 2.09375 -3.988281 1.90625 -3.78125 C 1.832031 -3.695312 1.765625 -3.59375 1.703125 -3.46875 C 1.648438 -3.351562 1.609375 -3.21875 1.578125 -3.0625 L 3.765625 -3.0625 C 3.734375 -3.363281 3.640625 -3.601562 3.484375 -3.78125 C 3.285156 -3.988281 3.007812 -4.09375 2.65625 -4.09375 Z M 2.65625 -4.09375 "/></g></g></g><g fill="#551684" fill-opacity="1"><g transform="translate(31.127085, 17.38847)"><g><path d="M 3.359375 -3.90625 C 3.265625 -3.945312 3.148438 -3.96875 3.015625 -3.96875 C 2.953125 -3.96875 2.882812 -3.957031 2.8125 -3.9375 C 2.738281 -3.925781 2.671875 -3.90625 2.609375 -3.875 C 2.460938 -3.8125 2.335938 -3.71875 2.234375 -3.59375 C 2.179688 -3.53125 2.128906 -3.453125 2.078125 -3.359375 C 2.035156 -3.273438 2 -3.1875 1.96875 -3.09375 C 1.894531 -2.875 1.859375 -2.613281 1.859375 -2.3125 L 1.859375 0.234375 L 0.53125 0.234375 L 0.53125 -5.1875 L 1.828125 -5.1875 L 1.828125 -4.734375 C 1.890625 -4.785156 1.953125 -4.835938 2.015625 -4.890625 C 2.160156 -5.015625 2.332031 -5.113281 2.53125 -5.1875 C 2.625 -5.226562 2.722656 -5.257812 2.828125 -5.28125 C 2.941406 -5.300781 3.0625 -5.3125 3.1875 -5.3125 C 3.289062 -5.3125 3.390625 -5.304688 3.484375 -5.296875 C 3.597656 -5.285156 3.695312 -5.269531 3.78125 -5.25 L 4 -5.171875 L 3.9375 -4.953125 L 3.671875 -4.0625 L 3.609375 -3.796875 Z M 3.359375 -3.90625 "/></g></g></g><g fill="#551684" fill-opacity="1"><g transform="translate(34.932101, 17.38847)"><g><path d="M 0.859375 -1.296875 C 0.992188 -1.171875 1.175781 -1.066406 1.40625 -0.984375 C 1.625 -0.910156 1.863281 -0.875 2.125 -0.875 C 2.4375 -0.875 2.660156 -0.914062 2.796875 -1 C 2.910156 -1.070312 2.96875 -1.160156 2.96875 -1.265625 C 2.96875 -1.328125 2.953125 -1.382812 2.921875 -1.4375 C 2.898438 -1.476562 2.863281 -1.523438 2.8125 -1.578125 C 2.738281 -1.640625 2.628906 -1.703125 2.484375 -1.765625 C 2.453125 -1.785156 2.410156 -1.800781 2.359375 -1.8125 C 2.316406 -1.832031 2.269531 -1.851562 2.21875 -1.875 C 2.164062 -1.894531 2.113281 -1.914062 2.0625 -1.9375 C 2.007812 -1.957031 1.953125 -1.976562 1.890625 -2 C 1.722656 -2.0625 1.570312 -2.125 1.4375 -2.1875 C 1.300781 -2.25 1.175781 -2.316406 1.0625 -2.390625 C 0.945312 -2.460938 0.84375 -2.539062 0.75 -2.625 C 0.613281 -2.757812 0.507812 -2.914062 0.4375 -3.09375 C 0.363281 -3.28125 0.328125 -3.484375 0.328125 -3.703125 C 0.328125 -3.929688 0.378906 -4.148438 0.484375 -4.359375 C 0.523438 -4.421875 0.566406 -4.476562 0.609375 -4.53125 C 0.648438 -4.59375 0.695312 -4.648438 0.75 -4.703125 C 0.800781 -4.765625 0.859375 -4.816406 0.921875 -4.859375 C 1.109375 -5.003906 1.332031 -5.113281 1.59375 -5.1875 C 1.84375 -5.269531 2.128906 -5.3125 2.453125 -5.3125 C 2.796875 -5.3125 3.101562 -5.273438 3.375 -5.203125 C 3.507812 -5.160156 3.632812 -5.117188 3.75 -5.078125 C 3.863281 -5.035156 3.972656 -4.984375 4.078125 -4.921875 L 4.265625 -4.828125 L 3.875 -3.65625 L 3.609375 -3.796875 C 3.460938 -3.898438 3.289062 -3.976562 3.09375 -4.03125 C 2.882812 -4.09375 2.660156 -4.125 2.421875 -4.125 C 2.328125 -4.125 2.238281 -4.113281 2.15625 -4.09375 C 2.082031 -4.082031 2.015625 -4.066406 1.953125 -4.046875 C 1.898438 -4.023438 1.851562 -4 1.8125 -3.96875 C 1.75 -3.914062 1.707031 -3.867188 1.6875 -3.828125 C 1.664062 -3.796875 1.65625 -3.757812 1.65625 -3.71875 C 1.65625 -3.675781 1.660156 -3.640625 1.671875 -3.609375 C 1.679688 -3.578125 1.707031 -3.546875 1.75 -3.515625 C 1.8125 -3.472656 1.898438 -3.425781 2.015625 -3.375 C 2.078125 -3.351562 2.144531 -3.328125 2.21875 -3.296875 C 2.289062 -3.265625 2.375 -3.234375 2.46875 -3.203125 C 2.550781 -3.171875 2.628906 -3.140625 2.703125 -3.109375 C 2.773438 -3.078125 2.84375 -3.046875 2.90625 -3.015625 C 2.976562 -2.992188 3.046875 -2.96875 3.109375 -2.9375 C 3.171875 -2.90625 3.226562 -2.878906 3.28125 -2.859375 C 3.53125 -2.734375 3.726562 -2.597656 3.875 -2.453125 C 4.039062 -2.296875 4.15625 -2.117188 4.21875 -1.921875 C 4.28125 -1.742188 4.3125 -1.546875 4.3125 -1.328125 C 4.3125 -1.066406 4.253906 -0.828125 4.140625 -0.609375 C 4.023438 -0.398438 3.867188 -0.222656 3.671875 -0.078125 C 3.578125 -0.00390625 3.46875 0.0546875 3.34375 0.109375 C 3.226562 0.160156 3.101562 0.207031 2.96875 0.25 C 2.707031 0.320312 2.414062 0.359375 2.09375 0.359375 C 1.6875 0.359375 1.320312 0.304688 1 0.203125 C 0.675781 0.0859375 0.40625 -0.046875 0.1875 -0.203125 L 0.03125 -0.328125 L 0.125 -0.5 L 0.625 -1.5 Z M 0.859375 -1.296875 "/></g></g></g><g fill="#551684" fill-opacity="1"><g transform="translate(39.395123, 17.38847)"><g><path d="M 1.625 0.234375 L 0.53125 0.234375 L 0.53125 -5.1875 L 1.859375 -5.1875 L 1.859375 0.234375 Z M 1.1875 -5.5625 C 0.957031 -5.5625 0.757812 -5.644531 0.59375 -5.8125 C 0.4375 -5.976562 0.359375 -6.175781 0.359375 -6.40625 C 0.359375 -6.65625 0.429688 -6.859375 0.578125 -7.015625 C 0.734375 -7.171875 0.9375 -7.25 1.1875 -7.25 C 1.300781 -7.25 1.410156 -7.226562 1.515625 -7.1875 C 1.617188 -7.144531 1.707031 -7.082031 1.78125 -7 C 1.863281 -6.914062 1.925781 -6.820312 1.96875 -6.71875 C 2.007812 -6.625 2.03125 -6.519531 2.03125 -6.40625 C 2.03125 -6.15625 1.953125 -5.953125 1.796875 -5.796875 C 1.640625 -5.640625 1.4375 -5.5625 1.1875 -5.5625 Z M 1.1875 -5.5625 "/></g></g></g><g fill="#551684" fill-opacity="1"><g transform="translate(41.779217, 17.38847)"><g><path d="M 4.203125 -2.484375 C 4.203125 -2.703125 4.164062 -2.910156 4.09375 -3.109375 C 4.03125 -3.296875 3.9375 -3.460938 3.8125 -3.609375 C 3.769531 -3.648438 3.722656 -3.691406 3.671875 -3.734375 C 3.628906 -3.773438 3.582031 -3.8125 3.53125 -3.84375 C 3.476562 -3.882812 3.425781 -3.921875 3.375 -3.953125 C 3.300781 -3.992188 3.21875 -4.019531 3.125 -4.03125 C 3.039062 -4.050781 2.945312 -4.0625 2.84375 -4.0625 C 2.425781 -4.0625 2.097656 -3.925781 1.859375 -3.65625 C 1.617188 -3.375 1.5 -2.988281 1.5 -2.5 C 1.5 -2.269531 1.53125 -2.0625 1.59375 -1.875 C 1.613281 -1.84375 1.628906 -1.804688 1.640625 -1.765625 C 1.648438 -1.734375 1.660156 -1.703125 1.671875 -1.671875 C 1.691406 -1.640625 1.707031 -1.609375 1.71875 -1.578125 C 1.738281 -1.554688 1.753906 -1.53125 1.765625 -1.5 C 1.785156 -1.476562 1.804688 -1.453125 1.828125 -1.421875 C 1.847656 -1.390625 1.867188 -1.367188 1.890625 -1.359375 C 1.929688 -1.304688 1.972656 -1.257812 2.015625 -1.21875 C 2.066406 -1.175781 2.113281 -1.132812 2.15625 -1.09375 C 2.207031 -1.0625 2.265625 -1.035156 2.328125 -1.015625 C 2.398438 -0.960938 2.476562 -0.925781 2.5625 -0.90625 C 2.65625 -0.894531 2.75 -0.890625 2.84375 -0.890625 C 3.0625 -0.890625 3.253906 -0.925781 3.421875 -1 C 3.503906 -1.039062 3.578125 -1.082031 3.640625 -1.125 C 3.710938 -1.175781 3.773438 -1.238281 3.828125 -1.3125 C 3.953125 -1.445312 4.046875 -1.613281 4.109375 -1.8125 C 4.171875 -2.007812 4.203125 -2.234375 4.203125 -2.484375 Z M 0.140625 -2.484375 C 0.140625 -2.910156 0.210938 -3.300781 0.359375 -3.65625 C 0.492188 -4 0.679688 -4.289062 0.921875 -4.53125 C 1.160156 -4.78125 1.445312 -4.972656 1.78125 -5.109375 C 2.113281 -5.242188 2.46875 -5.3125 2.84375 -5.3125 C 2.945312 -5.3125 3.039062 -5.304688 3.125 -5.296875 C 3.21875 -5.285156 3.304688 -5.269531 3.390625 -5.25 C 3.484375 -5.238281 3.570312 -5.21875 3.65625 -5.1875 C 3.738281 -5.164062 3.820312 -5.140625 3.90625 -5.109375 C 4.070312 -5.046875 4.222656 -4.96875 4.359375 -4.875 C 4.503906 -4.78125 4.644531 -4.671875 4.78125 -4.546875 C 5.019531 -4.296875 5.207031 -4 5.34375 -3.65625 C 5.488281 -3.3125 5.5625 -2.925781 5.5625 -2.5 C 5.5625 -2.070312 5.492188 -1.679688 5.359375 -1.328125 C 5.210938 -0.984375 5.019531 -0.6875 4.78125 -0.4375 C 4.664062 -0.3125 4.535156 -0.195312 4.390625 -0.09375 C 4.242188 0 4.085938 0.0820312 3.921875 0.15625 C 3.585938 0.289062 3.226562 0.359375 2.84375 0.359375 C 2.65625 0.359375 2.46875 0.335938 2.28125 0.296875 C 2.101562 0.265625 1.929688 0.210938 1.765625 0.140625 C 1.441406 0.00390625 1.15625 -0.1875 0.90625 -0.4375 C 0.664062 -0.6875 0.476562 -0.988281 0.34375 -1.34375 C 0.207031 -1.6875 0.140625 -2.066406 0.140625 -2.484375 Z M 0.140625 -2.484375 "/></g></g></g><g fill="#551684" fill-opacity="1"><g transform="translate(47.48197, 17.38847)"><g><path d="M 1.828125 -4.75 C 1.878906 -4.800781 1.929688 -4.847656 1.984375 -4.890625 C 2.035156 -4.929688 2.085938 -4.96875 2.140625 -5 C 2.460938 -5.207031 2.835938 -5.3125 3.265625 -5.3125 C 3.578125 -5.3125 3.851562 -5.257812 4.09375 -5.15625 C 4.332031 -5.0625 4.535156 -4.914062 4.703125 -4.71875 C 5.015625 -4.332031 5.171875 -3.835938 5.171875 -3.234375 L 5.171875 0.234375 L 3.828125 0.234375 L 3.828125 -3.140625 C 3.828125 -3.242188 3.816406 -3.335938 3.796875 -3.421875 C 3.785156 -3.515625 3.765625 -3.597656 3.734375 -3.671875 C 3.710938 -3.742188 3.675781 -3.800781 3.625 -3.84375 C 3.59375 -3.894531 3.550781 -3.9375 3.5 -3.96875 C 3.457031 -4.007812 3.398438 -4.035156 3.328125 -4.046875 C 3.265625 -4.066406 3.191406 -4.078125 3.109375 -4.078125 C 2.992188 -4.078125 2.882812 -4.054688 2.78125 -4.015625 C 2.65625 -3.972656 2.535156 -3.910156 2.421875 -3.828125 C 2.304688 -3.734375 2.195312 -3.632812 2.09375 -3.53125 C 2.0625 -3.476562 2.019531 -3.421875 1.96875 -3.359375 C 1.925781 -3.304688 1.890625 -3.257812 1.859375 -3.21875 L 1.859375 0.234375 L 0.53125 0.234375 L 0.53125 -5.1875 L 1.828125 -5.1875 Z M 1.828125 -4.75 "/></g></g></g><g fill="#551684" fill-opacity="1"><g transform="translate(53.127513, 17.38847)"><g/></g></g><g fill="#551684" fill-opacity="1"><g transform="translate(55.988432, 17.38847)"><g><path d="M 3.828125 -6.671875 L 3.828125 -1 L 4.96875 -1 L 4.96875 0.234375 L 1.140625 0.234375 L 1.140625 -1 L 2.5 -1 L 2.5 -5.09375 L 1.59375 -4.421875 L 1.40625 -4.28125 L 1.265625 -4.46875 L 0.796875 -5.109375 L 0.65625 -5.3125 L 0.84375 -5.4375 L 2.828125 -6.859375 L 2.890625 -6.90625 L 3.828125 -6.90625 Z M 3.828125 -6.671875 "/></g></g></g><g fill="#551684" fill-opacity="1"><g transform="translate(61.710258, 17.38847)"><g><path d="M 0.546875 -0.53125 C 0.546875 -0.601562 0.550781 -0.675781 0.5625 -0.75 C 0.582031 -0.832031 0.609375 -0.90625 0.640625 -0.96875 C 0.679688 -1.039062 0.734375 -1.101562 0.796875 -1.15625 C 0.941406 -1.320312 1.15625 -1.40625 1.4375 -1.40625 C 1.65625 -1.40625 1.859375 -1.316406 2.046875 -1.140625 C 2.222656 -0.972656 2.3125 -0.769531 2.3125 -0.53125 C 2.3125 -0.269531 2.222656 -0.0546875 2.046875 0.109375 C 1.878906 0.273438 1.675781 0.359375 1.4375 0.359375 C 1.195312 0.359375 0.988281 0.269531 0.8125 0.09375 C 0.632812 -0.0820312 0.546875 -0.289062 0.546875 -0.53125 Z M 0.546875 -0.53125 "/></g></g></g><g fill="#551684" fill-opacity="1"><g transform="translate(64.571177, 17.38847)"><g><path d="M 2.875 -7.03125 C 3.28125 -7.03125 3.644531 -6.9375 3.96875 -6.75 C 4.125 -6.675781 4.269531 -6.570312 4.40625 -6.4375 C 4.539062 -6.3125 4.660156 -6.164062 4.765625 -6 C 4.972656 -5.6875 5.128906 -5.300781 5.234375 -4.84375 C 5.335938 -4.394531 5.390625 -3.890625 5.390625 -3.328125 C 5.390625 -2.171875 5.175781 -1.273438 4.75 -0.640625 C 4.3125 0.0234375 3.675781 0.359375 2.84375 0.359375 C 2.007812 0.359375 1.378906 0.0195312 0.953125 -0.65625 C 0.742188 -0.988281 0.585938 -1.375 0.484375 -1.8125 C 0.378906 -2.257812 0.328125 -2.769531 0.328125 -3.34375 C 0.328125 -4.5 0.539062 -5.394531 0.96875 -6.03125 C 1.40625 -6.695312 2.039062 -7.03125 2.875 -7.03125 Z M 2.859375 -5.765625 C 2.835938 -5.765625 2.816406 -5.765625 2.796875 -5.765625 C 2.773438 -5.765625 2.753906 -5.757812 2.734375 -5.75 C 2.710938 -5.75 2.691406 -5.75 2.671875 -5.75 C 2.648438 -5.75 2.628906 -5.742188 2.609375 -5.734375 C 2.585938 -5.734375 2.566406 -5.726562 2.546875 -5.71875 C 2.535156 -5.71875 2.519531 -5.710938 2.5 -5.703125 C 2.488281 -5.691406 2.472656 -5.679688 2.453125 -5.671875 C 2.441406 -5.671875 2.425781 -5.664062 2.40625 -5.65625 C 2.34375 -5.625 2.28125 -5.578125 2.21875 -5.515625 C 2.164062 -5.460938 2.113281 -5.390625 2.0625 -5.296875 C 1.945312 -5.109375 1.863281 -4.863281 1.8125 -4.5625 C 1.75 -4.238281 1.71875 -3.835938 1.71875 -3.359375 C 1.71875 -2.515625 1.828125 -1.878906 2.046875 -1.453125 C 2.242188 -1.085938 2.515625 -0.90625 2.859375 -0.90625 C 2.953125 -0.90625 3.035156 -0.914062 3.109375 -0.9375 C 3.179688 -0.957031 3.25 -0.984375 3.3125 -1.015625 C 3.445312 -1.085938 3.5625 -1.207031 3.65625 -1.375 C 3.71875 -1.457031 3.769531 -1.5625 3.8125 -1.6875 C 3.851562 -1.8125 3.882812 -1.953125 3.90625 -2.109375 C 3.96875 -2.429688 4 -2.832031 4 -3.3125 C 4 -4.15625 3.890625 -4.789062 3.671875 -5.21875 C 3.472656 -5.582031 3.203125 -5.765625 2.859375 -5.765625 Z M 2.859375 -5.765625 "/></g></g></g><g fill="#551684" fill-opacity="1"><g transform="translate(70.293003, 17.38847)"><g><path d="M 0.546875 -0.53125 C 0.546875 -0.601562 0.550781 -0.675781 0.5625 -0.75 C 0.582031 -0.832031 0.609375 -0.90625 0.640625 -0.96875 C 0.679688 -1.039062 0.734375 -1.101562 0.796875 -1.15625 C 0.941406 -1.320312 1.15625 -1.40625 1.4375 -1.40625 C 1.65625 -1.40625 1.859375 -1.316406 2.046875 -1.140625 C 2.222656 -0.972656 2.3125 -0.769531 2.3125 -0.53125 C 2.3125 -0.269531 2.222656 -0.0546875 2.046875 0.109375 C 1.878906 0.273438 1.675781 0.359375 1.4375 0.359375 C 1.195312 0.359375 0.988281 0.269531 0.8125 0.09375 C 0.632812 -0.0820312 0.546875 -0.289062 0.546875 -0.53125 Z M 0.546875 -0.53125 "/></g></g></g><g fill="#551684" fill-opacity="1"><g transform="translate(73.153922, 17.38847)"><g><path d="M 2.875 -7.03125 C 3.28125 -7.03125 3.644531 -6.9375 3.96875 -6.75 C 4.125 -6.675781 4.269531 -6.570312 4.40625 -6.4375 C 4.539062 -6.3125 4.660156 -6.164062 4.765625 -6 C 4.972656 -5.6875 5.128906 -5.300781 5.234375 -4.84375 C 5.335938 -4.394531 5.390625 -3.890625 5.390625 -3.328125 C 5.390625 -2.171875 5.175781 -1.273438 4.75 -0.640625 C 4.3125 0.0234375 3.675781 0.359375 2.84375 0.359375 C 2.007812 0.359375 1.378906 0.0195312 0.953125 -0.65625 C 0.742188 -0.988281 0.585938 -1.375 0.484375 -1.8125 C 0.378906 -2.257812 0.328125 -2.769531 0.328125 -3.34375 C 0.328125 -4.5 0.539062 -5.394531 0.96875 -6.03125 C 1.40625 -6.695312 2.039062 -7.03125 2.875 -7.03125 Z M 2.859375 -5.765625 C 2.835938 -5.765625 2.816406 -5.765625 2.796875 -5.765625 C 2.773438 -5.765625 2.753906 -5.757812 2.734375 -5.75 C 2.710938 -5.75 2.691406 -5.75 2.671875 -5.75 C 2.648438 -5.75 2.628906 -5.742188 2.609375 -5.734375 C 2.585938 -5.734375 2.566406 -5.726562 2.546875 -5.71875 C 2.535156 -5.71875 2.519531 -5.710938 2.5 -5.703125 C 2.488281 -5.691406 2.472656 -5.679688 2.453125 -5.671875 C 2.441406 -5.671875 2.425781 -5.664062 2.40625 -5.65625 C 2.34375 -5.625 2.28125 -5.578125 2.21875 -5.515625 C 2.164062 -5.460938 2.113281 -5.390625 2.0625 -5.296875 C 1.945312 -5.109375 1.863281 -4.863281 1.8125 -4.5625 C 1.75 -4.238281 1.71875 -3.835938 1.71875 -3.359375 C 1.71875 -2.515625 1.828125 -1.878906 2.046875 -1.453125 C 2.242188 -1.085938 2.515625 -0.90625 2.859375 -0.90625 C 2.953125 -0.90625 3.035156 -0.914062 3.109375 -0.9375 C 3.179688 -0.957031 3.25 -0.984375 3.3125 -1.015625 C 3.445312 -1.085938 3.5625 -1.207031 3.65625 -1.375 C 3.71875 -1.457031 3.769531 -1.5625 3.8125 -1.6875 C 3.851562 -1.8125 3.882812 -1.953125 3.90625 -2.109375 C 3.96875 -2.429688 4 -2.832031 4 -3.3125 C 4 -4.15625 3.890625 -4.789062 3.671875 -5.21875 C 3.472656 -5.582031 3.203125 -5.765625 2.859375 -5.765625 Z M 2.859375 -5.765625 "/></g></g></g></svg>