<svg xmlns="http://www.w3.org/2000/svg" xmlns:xlink="http://www.w3.org/1999/xlink" width="500" zoomAndPan="magnify" viewBox="0 0 375 374.999991" height="500" preserveAspectRatio="xMidYMid meet" version="1.0"><defs><g/><clipPath id="baa99b75e6"><path d="M 1.042969 0.75 L 125.234375 0.75 L 125.234375 29.214844 L 1.042969 29.214844 Z M 1.042969 0.75 " clip-rule="nonzero"/></clipPath><clipPath id="b6cbd5351d"><path d="M 15.273438 0.75 L 111 0.75 C 118.859375 0.75 125.230469 7.121094 125.230469 14.980469 C 125.230469 22.84375 118.859375 29.214844 111 29.214844 L 15.273438 29.214844 C 7.414062 29.214844 1.042969 22.84375 1.042969 14.980469 C 1.042969 7.121094 7.414062 0.75 15.273438 0.75 Z M 15.273438 0.75 " clip-rule="nonzero"/></clipPath><clipPath id="578f320774"><path d="M 9 7.28125 L 23.820312 7.28125 L 23.820312 21.53125 L 9 21.53125 Z M 9 7.28125 " clip-rule="nonzero"/></clipPath></defs><g clip-path="url(#baa99b75e6)"><g clip-path="url(#b6cbd5351d)"><path fill="#5e5c5d" d="M 1.042969 0.75 L 125.234375 0.75 L 125.234375 29.214844 L 1.042969 29.214844 Z M 1.042969 0.75 " fill-opacity="1" fill-rule="nonzero"/></g></g><g clip-path="url(#578f320774)"><path fill="#ffffff" d="M 15.488281 7.695312 C 12.261719 8.050781 9.632812 10.652344 9.246094 13.875 C 9.144531 14.691406 9.179688 15.5 9.359375 16.304688 C 9.539062 17.105469 9.847656 17.855469 10.285156 18.554688 C 10.722656 19.25 11.265625 19.851562 11.914062 20.359375 C 12.558594 20.867188 13.273438 21.253906 14.054688 21.515625 C 14.410156 21.570312 14.523438 21.351562 14.523438 21.160156 L 14.523438 19.957031 C 12.554688 20.386719 12.132812 19.003906 12.132812 19.003906 C 11.808594 18.179688 11.34375 17.960938 11.34375 17.960938 C 10.699219 17.519531 11.394531 17.535156 11.394531 17.535156 C 12.105469 17.582031 12.484375 18.265625 12.484375 18.265625 C 13.101562 19.347656 14.148438 19.027344 14.550781 18.855469 C 14.617188 18.394531 14.804688 18.082031 15 17.902344 C 13.417969 17.726562 11.765625 17.113281 11.765625 14.40625 C 11.765625 13.617188 12.035156 12.984375 12.496094 12.476562 C 12.425781 12.300781 12.175781 11.558594 12.566406 10.601562 C 12.566406 10.601562 13.164062 10.40625 14.523438 11.324219 C 15.707031 11.007812 16.894531 11.007812 18.078125 11.324219 C 19.4375 10.40625 20.035156 10.601562 20.035156 10.601562 C 20.425781 11.558594 20.175781 12.300781 20.105469 12.476562 C 20.566406 12.980469 20.839844 13.617188 20.839844 14.40625 C 20.839844 17.121094 19.175781 17.71875 17.589844 17.894531 C 17.84375 18.117188 18.078125 18.550781 18.078125 19.210938 L 18.078125 21.160156 C 18.078125 21.351562 18.191406 21.578125 18.554688 21.515625 C 18.96875 21.375 19.367188 21.203125 19.746094 20.988281 C 20.128906 20.777344 20.488281 20.535156 20.824219 20.257812 C 21.160156 19.980469 21.46875 19.671875 21.75 19.339844 C 22.027344 19.003906 22.277344 18.648438 22.492188 18.269531 C 22.707031 17.890625 22.882812 17.492188 23.023438 17.082031 C 23.167969 16.667969 23.269531 16.246094 23.335938 15.816406 C 23.398438 15.382812 23.421875 14.949219 23.40625 14.515625 C 23.390625 14.078125 23.335938 13.648438 23.242188 13.222656 C 23.148438 12.796875 23.015625 12.382812 22.84375 11.984375 C 22.675781 11.582031 22.46875 11.199219 22.226562 10.835938 C 21.988281 10.472656 21.714844 10.132812 21.414062 9.820312 C 21.109375 9.507812 20.78125 9.222656 20.425781 8.96875 C 20.070312 8.71875 19.695312 8.5 19.300781 8.316406 C 18.90625 8.128906 18.496094 7.984375 18.074219 7.875 C 17.652344 7.765625 17.222656 7.695312 16.789062 7.664062 C 16.355469 7.636719 15.917969 7.644531 15.488281 7.695312 Z M 15.488281 7.695312 " fill-opacity="1" fill-rule="nonzero"/></g><g fill="#ffffff" fill-opacity="1"><g transform="translate(28.017603, 19.847118)"><g><path d="M 0.03125 -9.953125 L 1.359375 -10.46875 L 1.703125 -10.609375 L 1.828125 -10.265625 L 4.625 -2.53125 L 7.453125 -10.234375 L 7.5625 -10.5625 L 7.90625 -10.421875 L 9.125 -9.953125 L 9.453125 -9.828125 L 9.328125 -9.5 L 5.671875 0.125 L 5.59375 0.359375 L 3.578125 0.359375 L 3.5 0.125 L -0.171875 -9.5 L -0.296875 -9.828125 Z M 0.03125 -9.953125 "/></g></g></g><g fill="#ffffff" fill-opacity="1"><g transform="translate(37.145195, 19.847118)"><g><path d="M 2.375 -2.828125 C 2.488281 -2.410156 2.671875 -2.070312 2.921875 -1.8125 C 3.253906 -1.488281 3.703125 -1.328125 4.265625 -1.328125 C 4.398438 -1.328125 4.53125 -1.332031 4.65625 -1.34375 C 4.78125 -1.351562 4.894531 -1.363281 5 -1.375 C 5.113281 -1.394531 5.222656 -1.421875 5.328125 -1.453125 C 5.441406 -1.484375 5.550781 -1.515625 5.65625 -1.546875 C 5.757812 -1.578125 5.859375 -1.613281 5.953125 -1.65625 C 6.054688 -1.695312 6.160156 -1.738281 6.265625 -1.78125 L 6.640625 -1.953125 L 6.75 -1.5625 L 7.046875 -0.453125 L 7.125 -0.15625 L 6.859375 -0.03125 C 6.492188 0.144531 6.082031 0.28125 5.625 0.375 C 5.394531 0.425781 5.148438 0.460938 4.890625 0.484375 C 4.640625 0.515625 4.378906 0.53125 4.109375 0.53125 C 3.523438 0.53125 3 0.4375 2.53125 0.25 C 2.050781 0.0390625 1.644531 -0.242188 1.3125 -0.609375 C 0.976562 -0.972656 0.722656 -1.421875 0.546875 -1.953125 C 0.367188 -2.460938 0.28125 -3.046875 0.28125 -3.703125 C 0.28125 -4.296875 0.367188 -4.847656 0.546875 -5.359375 C 0.640625 -5.617188 0.75 -5.863281 0.875 -6.09375 C 1 -6.320312 1.140625 -6.53125 1.296875 -6.71875 C 1.617188 -7.101562 2.007812 -7.40625 2.46875 -7.625 C 2.925781 -7.84375 3.4375 -7.953125 4 -7.953125 C 4.1875 -7.953125 4.367188 -7.9375 4.546875 -7.90625 C 4.722656 -7.882812 4.894531 -7.851562 5.0625 -7.8125 C 5.226562 -7.769531 5.382812 -7.710938 5.53125 -7.640625 C 5.757812 -7.535156 5.96875 -7.414062 6.15625 -7.28125 C 6.34375 -7.144531 6.507812 -6.984375 6.65625 -6.796875 C 6.957031 -6.453125 7.179688 -6.050781 7.328125 -5.59375 C 7.398438 -5.363281 7.453125 -5.125 7.484375 -4.875 C 7.523438 -4.632812 7.546875 -4.394531 7.546875 -4.15625 C 7.546875 -4.082031 7.546875 -4.015625 7.546875 -3.953125 C 7.546875 -3.890625 7.539062 -3.820312 7.53125 -3.75 C 7.53125 -3.675781 7.53125 -3.601562 7.53125 -3.53125 C 7.53125 -3.46875 7.523438 -3.40625 7.515625 -3.34375 C 7.515625 -3.28125 7.507812 -3.21875 7.5 -3.15625 L 7.46875 -2.828125 Z M 3.96875 -6.125 C 3.507812 -6.125 3.140625 -5.96875 2.859375 -5.65625 C 2.742188 -5.539062 2.640625 -5.390625 2.546875 -5.203125 C 2.460938 -5.023438 2.398438 -4.816406 2.359375 -4.578125 L 5.640625 -4.578125 C 5.585938 -5.035156 5.441406 -5.394531 5.203125 -5.65625 C 4.910156 -5.96875 4.5 -6.125 3.96875 -6.125 Z M 3.96875 -6.125 "/></g></g></g><g fill="#ffffff" fill-opacity="1"><g transform="translate(44.903654, 19.847118)"><g><path d="M 5.015625 -5.84375 C 4.890625 -5.90625 4.722656 -5.9375 4.515625 -5.9375 C 4.410156 -5.9375 4.304688 -5.921875 4.203125 -5.890625 C 4.097656 -5.867188 3.992188 -5.835938 3.890625 -5.796875 C 3.679688 -5.703125 3.503906 -5.5625 3.359375 -5.375 C 3.265625 -5.28125 3.1875 -5.164062 3.125 -5.03125 C 3.0625 -4.90625 3 -4.769531 2.9375 -4.625 C 2.832031 -4.300781 2.78125 -3.914062 2.78125 -3.46875 L 2.78125 0.359375 L 0.78125 0.359375 L 0.78125 -7.78125 L 2.734375 -7.78125 L 2.734375 -7.078125 C 2.828125 -7.160156 2.921875 -7.238281 3.015625 -7.3125 C 3.234375 -7.507812 3.488281 -7.664062 3.78125 -7.78125 C 3.9375 -7.832031 4.09375 -7.875 4.25 -7.90625 C 4.414062 -7.9375 4.585938 -7.953125 4.765625 -7.953125 C 4.921875 -7.953125 5.070312 -7.941406 5.21875 -7.921875 C 5.382812 -7.910156 5.53125 -7.882812 5.65625 -7.84375 L 5.984375 -7.75 L 5.890625 -7.40625 L 5.5 -6.078125 L 5.390625 -5.6875 Z M 5.015625 -5.84375 "/></g></g></g><g fill="#ffffff" fill-opacity="1"><g transform="translate(50.594136, 19.847118)"><g><path d="M 1.28125 -1.9375 C 1.488281 -1.75 1.757812 -1.597656 2.09375 -1.484375 C 2.425781 -1.359375 2.789062 -1.296875 3.1875 -1.296875 C 3.644531 -1.296875 3.976562 -1.363281 4.1875 -1.5 C 4.351562 -1.613281 4.4375 -1.742188 4.4375 -1.890625 C 4.4375 -1.984375 4.414062 -2.066406 4.375 -2.140625 C 4.351562 -2.210938 4.296875 -2.289062 4.203125 -2.375 C 4.085938 -2.46875 3.925781 -2.5625 3.71875 -2.65625 C 3.664062 -2.675781 3.601562 -2.695312 3.53125 -2.71875 C 3.46875 -2.75 3.394531 -2.78125 3.3125 -2.8125 C 3.238281 -2.84375 3.160156 -2.875 3.078125 -2.90625 C 3.003906 -2.9375 2.921875 -2.96875 2.828125 -3 C 2.578125 -3.082031 2.347656 -3.171875 2.140625 -3.265625 C 1.941406 -3.359375 1.753906 -3.457031 1.578125 -3.5625 C 1.410156 -3.675781 1.257812 -3.796875 1.125 -3.921875 C 0.914062 -4.117188 0.757812 -4.351562 0.65625 -4.625 C 0.550781 -4.90625 0.5 -5.210938 0.5 -5.546875 C 0.5 -5.890625 0.578125 -6.210938 0.734375 -6.515625 C 0.785156 -6.609375 0.84375 -6.703125 0.90625 -6.796875 C 0.976562 -6.890625 1.050781 -6.972656 1.125 -7.046875 C 1.195312 -7.128906 1.285156 -7.207031 1.390625 -7.28125 C 1.660156 -7.5 1.988281 -7.664062 2.375 -7.78125 C 2.757812 -7.894531 3.195312 -7.953125 3.6875 -7.953125 C 4.195312 -7.953125 4.648438 -7.894531 5.046875 -7.78125 C 5.242188 -7.726562 5.429688 -7.664062 5.609375 -7.59375 C 5.785156 -7.53125 5.953125 -7.457031 6.109375 -7.375 L 6.390625 -7.234375 L 6.296875 -6.953125 L 5.9375 -5.890625 L 5.796875 -5.484375 L 5.40625 -5.6875 C 5.175781 -5.832031 4.914062 -5.945312 4.625 -6.03125 C 4.320312 -6.113281 3.988281 -6.15625 3.625 -6.15625 C 3.476562 -6.15625 3.34375 -6.144531 3.21875 -6.125 C 3.101562 -6.113281 3.003906 -6.085938 2.921875 -6.046875 C 2.835938 -6.015625 2.765625 -5.976562 2.703125 -5.9375 C 2.609375 -5.863281 2.546875 -5.796875 2.515625 -5.734375 C 2.484375 -5.679688 2.46875 -5.625 2.46875 -5.5625 C 2.46875 -5.5 2.476562 -5.441406 2.5 -5.390625 C 2.519531 -5.347656 2.5625 -5.304688 2.625 -5.265625 C 2.71875 -5.203125 2.847656 -5.128906 3.015625 -5.046875 C 3.109375 -5.015625 3.207031 -4.972656 3.3125 -4.921875 C 3.425781 -4.878906 3.550781 -4.835938 3.6875 -4.796875 C 3.8125 -4.742188 3.925781 -4.695312 4.03125 -4.65625 C 4.144531 -4.613281 4.253906 -4.570312 4.359375 -4.53125 C 4.460938 -4.488281 4.5625 -4.445312 4.65625 -4.40625 C 4.75 -4.363281 4.835938 -4.320312 4.921875 -4.28125 C 5.285156 -4.09375 5.582031 -3.890625 5.8125 -3.671875 C 6.039062 -3.429688 6.207031 -3.164062 6.3125 -2.875 C 6.414062 -2.601562 6.46875 -2.304688 6.46875 -1.984375 C 6.46875 -1.585938 6.378906 -1.226562 6.203125 -0.90625 C 6.035156 -0.59375 5.800781 -0.328125 5.5 -0.109375 C 5.351562 -0.00390625 5.191406 0.0820312 5.015625 0.15625 C 4.835938 0.238281 4.648438 0.3125 4.453125 0.375 C 4.054688 0.476562 3.617188 0.53125 3.140625 0.53125 C 2.523438 0.53125 1.976562 0.453125 1.5 0.296875 C 1.007812 0.140625 0.601562 -0.0625 0.28125 -0.3125 L 0.046875 -0.5 L 0.1875 -0.75 L 0.734375 -1.828125 L 0.921875 -2.234375 Z M 1.28125 -1.9375 "/></g></g></g><g fill="#ffffff" fill-opacity="1"><g transform="translate(57.268685, 19.847118)"><g><path d="M 2.421875 0.359375 L 0.78125 0.359375 L 0.78125 -7.78125 L 2.78125 -7.78125 L 2.78125 0.359375 Z M 1.78125 -8.328125 C 1.4375 -8.328125 1.140625 -8.453125 0.890625 -8.703125 C 0.648438 -8.953125 0.53125 -9.25 0.53125 -9.59375 C 0.53125 -9.957031 0.644531 -10.253906 0.875 -10.484375 C 1.113281 -10.722656 1.414062 -10.84375 1.78125 -10.84375 C 1.957031 -10.84375 2.117188 -10.8125 2.265625 -10.75 C 2.421875 -10.6875 2.554688 -10.59375 2.671875 -10.46875 C 2.796875 -10.351562 2.882812 -10.21875 2.9375 -10.0625 C 3 -9.914062 3.03125 -9.757812 3.03125 -9.59375 C 3.03125 -9.21875 2.914062 -8.910156 2.6875 -8.671875 C 2.457031 -8.441406 2.15625 -8.328125 1.78125 -8.328125 Z M 1.78125 -8.328125 "/></g></g></g><g fill="#ffffff" fill-opacity="1"><g transform="translate(60.834146, 19.847118)"><g><path d="M 6.296875 -3.703125 C 6.296875 -4.035156 6.242188 -4.351562 6.140625 -4.65625 C 6.035156 -4.9375 5.890625 -5.1875 5.703125 -5.40625 C 5.640625 -5.46875 5.570312 -5.53125 5.5 -5.59375 C 5.4375 -5.65625 5.363281 -5.710938 5.28125 -5.765625 C 5.207031 -5.816406 5.128906 -5.863281 5.046875 -5.90625 C 4.929688 -5.96875 4.804688 -6.015625 4.671875 -6.046875 C 4.546875 -6.078125 4.410156 -6.09375 4.265625 -6.09375 C 3.628906 -6.09375 3.132812 -5.890625 2.78125 -5.484375 C 2.414062 -5.054688 2.234375 -4.472656 2.234375 -3.734375 C 2.234375 -3.398438 2.285156 -3.085938 2.390625 -2.796875 C 2.410156 -2.742188 2.429688 -2.691406 2.453125 -2.640625 C 2.472656 -2.597656 2.492188 -2.550781 2.515625 -2.5 C 2.535156 -2.457031 2.554688 -2.414062 2.578125 -2.375 C 2.609375 -2.332031 2.632812 -2.289062 2.65625 -2.25 C 2.6875 -2.21875 2.710938 -2.175781 2.734375 -2.125 C 2.765625 -2.082031 2.800781 -2.050781 2.84375 -2.03125 C 2.894531 -1.945312 2.953125 -1.875 3.015625 -1.8125 C 3.085938 -1.75 3.160156 -1.691406 3.234375 -1.640625 C 3.316406 -1.585938 3.398438 -1.546875 3.484375 -1.515625 C 3.597656 -1.441406 3.71875 -1.390625 3.84375 -1.359375 C 3.976562 -1.335938 4.117188 -1.328125 4.265625 -1.328125 C 4.585938 -1.328125 4.875 -1.382812 5.125 -1.5 C 5.25 -1.550781 5.359375 -1.613281 5.453125 -1.6875 C 5.554688 -1.769531 5.648438 -1.863281 5.734375 -1.96875 C 5.910156 -2.164062 6.050781 -2.410156 6.15625 -2.703125 C 6.25 -3.003906 6.296875 -3.335938 6.296875 -3.703125 Z M 0.21875 -3.703125 C 0.21875 -4.347656 0.320312 -4.9375 0.53125 -5.46875 C 0.738281 -5.988281 1.019531 -6.429688 1.375 -6.796875 C 1.738281 -7.160156 2.171875 -7.441406 2.671875 -7.640625 C 3.160156 -7.847656 3.691406 -7.953125 4.265625 -7.953125 C 4.410156 -7.953125 4.546875 -7.941406 4.671875 -7.921875 C 4.804688 -7.910156 4.941406 -7.890625 5.078125 -7.859375 C 5.210938 -7.835938 5.34375 -7.804688 5.46875 -7.765625 C 5.59375 -7.734375 5.71875 -7.691406 5.84375 -7.640625 C 6.09375 -7.546875 6.320312 -7.425781 6.53125 -7.28125 C 6.75 -7.144531 6.953125 -6.984375 7.140625 -6.796875 C 7.503906 -6.429688 7.789062 -5.988281 8 -5.46875 C 8.207031 -4.945312 8.3125 -4.367188 8.3125 -3.734375 C 8.3125 -3.097656 8.210938 -2.519531 8.015625 -2 C 7.804688 -1.476562 7.519531 -1.03125 7.15625 -0.65625 C 6.976562 -0.46875 6.78125 -0.296875 6.5625 -0.140625 C 6.34375 0.00390625 6.109375 0.128906 5.859375 0.234375 C 5.367188 0.429688 4.835938 0.53125 4.265625 0.53125 C 3.984375 0.53125 3.707031 0.503906 3.4375 0.453125 C 3.164062 0.398438 2.90625 0.320312 2.65625 0.21875 C 2.15625 0.0078125 1.722656 -0.28125 1.359375 -0.65625 C 1.003906 -1.039062 0.722656 -1.492188 0.515625 -2.015625 C 0.316406 -2.523438 0.21875 -3.085938 0.21875 -3.703125 Z M 0.21875 -3.703125 "/></g></g></g><g fill="#ffffff" fill-opacity="1"><g transform="translate(69.362735, 19.847118)"><g><path d="M 2.734375 -7.125 C 2.816406 -7.195312 2.894531 -7.257812 2.96875 -7.3125 C 3.039062 -7.375 3.117188 -7.425781 3.203125 -7.46875 C 3.679688 -7.789062 4.238281 -7.953125 4.875 -7.953125 C 5.34375 -7.953125 5.753906 -7.875 6.109375 -7.71875 C 6.472656 -7.570312 6.78125 -7.351562 7.03125 -7.0625 C 7.5 -6.488281 7.734375 -5.75 7.734375 -4.84375 L 7.734375 0.359375 L 5.734375 0.359375 L 5.734375 -4.6875 C 5.734375 -4.851562 5.71875 -5 5.6875 -5.125 C 5.664062 -5.257812 5.632812 -5.378906 5.59375 -5.484375 C 5.550781 -5.597656 5.5 -5.691406 5.4375 -5.765625 C 5.375 -5.835938 5.304688 -5.898438 5.234375 -5.953125 C 5.171875 -6.003906 5.085938 -6.039062 4.984375 -6.0625 C 4.890625 -6.09375 4.785156 -6.109375 4.671875 -6.109375 C 4.492188 -6.109375 4.320312 -6.070312 4.15625 -6 C 3.96875 -5.9375 3.789062 -5.84375 3.625 -5.71875 C 3.445312 -5.582031 3.285156 -5.4375 3.140625 -5.28125 C 3.078125 -5.207031 3.015625 -5.128906 2.953125 -5.046875 C 2.890625 -4.960938 2.832031 -4.882812 2.78125 -4.8125 L 2.78125 0.359375 L 0.78125 0.359375 L 0.78125 -7.78125 L 2.734375 -7.78125 Z M 2.734375 -7.125 "/></g></g></g><g fill="#ffffff" fill-opacity="1"><g transform="translate(77.80576, 19.847118)"><g/></g></g><g fill="#ffffff" fill-opacity="1"><g transform="translate(82.084321, 19.847118)"><g><path d="M 5.734375 -9.984375 L 5.734375 -1.5 L 7.4375 -1.5 L 7.4375 0.359375 L 1.703125 0.359375 L 1.703125 -1.5 L 3.734375 -1.5 L 3.734375 -7.625 L 2.390625 -6.625 L 2.109375 -6.40625 L 1.890625 -6.6875 L 1.203125 -7.640625 L 0.984375 -7.953125 L 1.265625 -8.140625 L 4.21875 -10.265625 L 4.328125 -10.34375 L 5.734375 -10.34375 Z M 5.734375 -9.984375 "/></g></g></g><g fill="#ffffff" fill-opacity="1"><g transform="translate(90.641444, 19.847118)"><g><path d="M 0.828125 -0.78125 C 0.828125 -0.90625 0.835938 -1.019531 0.859375 -1.125 C 0.890625 -1.238281 0.929688 -1.347656 0.984375 -1.453125 C 1.035156 -1.554688 1.101562 -1.644531 1.1875 -1.71875 C 1.414062 -1.96875 1.734375 -2.09375 2.140625 -2.09375 C 2.484375 -2.09375 2.785156 -1.96875 3.046875 -1.71875 C 3.316406 -1.457031 3.453125 -1.144531 3.453125 -0.78125 C 3.453125 -0.394531 3.320312 -0.0820312 3.0625 0.15625 C 2.820312 0.40625 2.515625 0.53125 2.140625 0.53125 C 1.785156 0.53125 1.476562 0.398438 1.21875 0.140625 C 0.957031 -0.117188 0.828125 -0.425781 0.828125 -0.78125 Z M 0.828125 -0.78125 "/></g></g></g><g fill="#ffffff" fill-opacity="1"><g transform="translate(94.920005, 19.847118)"><g><path d="M 4.296875 -10.515625 C 4.898438 -10.515625 5.445312 -10.378906 5.9375 -10.109375 C 6.175781 -9.984375 6.394531 -9.828125 6.59375 -9.640625 C 6.789062 -9.453125 6.96875 -9.234375 7.125 -8.984375 C 7.4375 -8.515625 7.671875 -7.9375 7.828125 -7.25 C 7.984375 -6.582031 8.0625 -5.828125 8.0625 -4.984375 C 8.0625 -3.242188 7.75 -1.90625 7.125 -0.96875 C 6.457031 0.03125 5.503906 0.53125 4.265625 0.53125 C 3.015625 0.53125 2.066406 0.0234375 1.421875 -0.984375 C 1.109375 -1.472656 0.875 -2.050781 0.71875 -2.71875 C 0.570312 -3.382812 0.5 -4.144531 0.5 -5 C 0.5 -6.738281 0.8125 -8.078125 1.4375 -9.015625 C 2.101562 -10.015625 3.054688 -10.515625 4.296875 -10.515625 Z M 4.28125 -8.625 C 4.25 -8.625 4.21875 -8.625 4.1875 -8.625 C 4.15625 -8.625 4.125 -8.617188 4.09375 -8.609375 C 4.0625 -8.609375 4.03125 -8.609375 4 -8.609375 C 3.96875 -8.609375 3.9375 -8.601562 3.90625 -8.59375 C 3.875 -8.582031 3.847656 -8.570312 3.828125 -8.5625 C 3.804688 -8.5625 3.78125 -8.550781 3.75 -8.53125 C 3.71875 -8.519531 3.691406 -8.507812 3.671875 -8.5 C 3.648438 -8.488281 3.625 -8.472656 3.59375 -8.453125 C 3.5 -8.410156 3.410156 -8.34375 3.328125 -8.25 C 3.242188 -8.164062 3.160156 -8.0625 3.078125 -7.9375 C 2.921875 -7.65625 2.796875 -7.28125 2.703125 -6.8125 C 2.609375 -6.34375 2.5625 -5.742188 2.5625 -5.015625 C 2.5625 -3.753906 2.726562 -2.8125 3.0625 -2.1875 C 3.363281 -1.632812 3.769531 -1.359375 4.28125 -1.359375 C 4.414062 -1.359375 4.535156 -1.367188 4.640625 -1.390625 C 4.753906 -1.421875 4.863281 -1.46875 4.96875 -1.53125 C 5.164062 -1.632812 5.335938 -1.804688 5.484375 -2.046875 C 5.566406 -2.179688 5.640625 -2.34375 5.703125 -2.53125 C 5.765625 -2.71875 5.8125 -2.929688 5.84375 -3.171875 C 5.9375 -3.640625 5.984375 -4.238281 5.984375 -4.96875 C 5.984375 -6.226562 5.820312 -7.171875 5.5 -7.796875 C 5.195312 -8.347656 4.789062 -8.625 4.28125 -8.625 Z M 4.28125 -8.625 "/></g></g></g><g fill="#ffffff" fill-opacity="1"><g transform="translate(103.477127, 19.847118)"><g><path d="M 0.828125 -0.78125 C 0.828125 -0.90625 0.835938 -1.019531 0.859375 -1.125 C 0.890625 -1.238281 0.929688 -1.347656 0.984375 -1.453125 C 1.035156 -1.554688 1.101562 -1.644531 1.1875 -1.71875 C 1.414062 -1.96875 1.734375 -2.09375 2.140625 -2.09375 C 2.484375 -2.09375 2.785156 -1.96875 3.046875 -1.71875 C 3.316406 -1.457031 3.453125 -1.144531 3.453125 -0.78125 C 3.453125 -0.394531 3.320312 -0.0820312 3.0625 0.15625 C 2.820312 0.40625 2.515625 0.53125 2.140625 0.53125 C 1.785156 0.53125 1.476562 0.398438 1.21875 0.140625 C 0.957031 -0.117188 0.828125 -0.425781 0.828125 -0.78125 Z M 0.828125 -0.78125 "/></g></g></g><g fill="#ffffff" fill-opacity="1"><g transform="translate(107.755688, 19.847118)"><g><path d="M 4.296875 -10.515625 C 4.898438 -10.515625 5.445312 -10.378906 5.9375 -10.109375 C 6.175781 -9.984375 6.394531 -9.828125 6.59375 -9.640625 C 6.789062 -9.453125 6.96875 -9.234375 7.125 -8.984375 C 7.4375 -8.515625 7.671875 -7.9375 7.828125 -7.25 C 7.984375 -6.582031 8.0625 -5.828125 8.0625 -4.984375 C 8.0625 -3.242188 7.75 -1.90625 7.125 -0.96875 C 6.457031 0.03125 5.503906 0.53125 4.265625 0.53125 C 3.015625 0.53125 2.066406 0.0234375 1.421875 -0.984375 C 1.109375 -1.472656 0.875 -2.050781 0.71875 -2.71875 C 0.570312 -3.382812 0.5 -4.144531 0.5 -5 C 0.5 -6.738281 0.8125 -8.078125 1.4375 -9.015625 C 2.101562 -10.015625 3.054688 -10.515625 4.296875 -10.515625 Z M 4.28125 -8.625 C 4.25 -8.625 4.21875 -8.625 4.1875 -8.625 C 4.15625 -8.625 4.125 -8.617188 4.09375 -8.609375 C 4.0625 -8.609375 4.03125 -8.609375 4 -8.609375 C 3.96875 -8.609375 3.9375 -8.601562 3.90625 -8.59375 C 3.875 -8.582031 3.847656 -8.570312 3.828125 -8.5625 C 3.804688 -8.5625 3.78125 -8.550781 3.75 -8.53125 C 3.71875 -8.519531 3.691406 -8.507812 3.671875 -8.5 C 3.648438 -8.488281 3.625 -8.472656 3.59375 -8.453125 C 3.5 -8.410156 3.410156 -8.34375 3.328125 -8.25 C 3.242188 -8.164062 3.160156 -8.0625 3.078125 -7.9375 C 2.921875 -7.65625 2.796875 -7.28125 2.703125 -6.8125 C 2.609375 -6.34375 2.5625 -5.742188 2.5625 -5.015625 C 2.5625 -3.753906 2.726562 -2.8125 3.0625 -2.1875 C 3.363281 -1.632812 3.769531 -1.359375 4.28125 -1.359375 C 4.414062 -1.359375 4.535156 -1.367188 4.640625 -1.390625 C 4.753906 -1.421875 4.863281 -1.46875 4.96875 -1.53125 C 5.164062 -1.632812 5.335938 -1.804688 5.484375 -2.046875 C 5.566406 -2.179688 5.640625 -2.34375 5.703125 -2.53125 C 5.765625 -2.71875 5.8125 -2.929688 5.84375 -3.171875 C 5.9375 -3.640625 5.984375 -4.238281 5.984375 -4.96875 C 5.984375 -6.226562 5.820312 -7.171875 5.5 -7.796875 C 5.195312 -8.347656 4.789062 -8.625 4.28125 -8.625 Z M 4.28125 -8.625 "/></g></g></g></svg>