<svg xmlns="http://www.w3.org/2000/svg" xmlns:xlink="http://www.w3.org/1999/xlink" width="115" zoomAndPan="magnify" viewBox="0 0 86.25 30.000001" height="40" preserveAspectRatio="xMidYMid meet" version="1.0"><defs><g/><clipPath id="34dbbba678"><path d="M 2.480469 2.902344 L 83.042969 2.902344 L 83.042969 26.128906 L 2.480469 26.128906 Z M 2.480469 2.902344 " clip-rule="nonzero"/></clipPath><clipPath id="4e0dc29524"><path d="M 14.09375 2.902344 L 71.429688 2.902344 C 74.511719 2.902344 77.464844 4.125 79.644531 6.304688 C 81.820312 8.480469 83.042969 11.4375 83.042969 14.515625 C 83.042969 17.597656 81.820312 20.550781 79.644531 22.726562 C 77.464844 24.90625 74.511719 26.128906 71.429688 26.128906 L 14.09375 26.128906 C 11.011719 26.128906 8.058594 24.90625 5.882812 22.726562 C 3.703125 20.550781 2.480469 17.597656 2.480469 14.515625 C 2.480469 11.4375 3.703125 8.480469 5.882812 6.304688 C 8.058594 4.125 11.011719 2.902344 14.09375 2.902344 Z M 14.09375 2.902344 " clip-rule="nonzero"/></clipPath><clipPath id="406af5336d"><path d="M 6.347656 9.511719 L 17 9.511719 L 17 19.671875 L 6.347656 19.671875 Z M 6.347656 9.511719 " clip-rule="nonzero"/></clipPath></defs><g clip-path="url(#34dbbba678)"><g clip-path="url(#4e0dc29524)"><path fill="#f3abff" d="M 2.480469 2.902344 L 83.042969 2.902344 L 83.042969 26.128906 L 2.480469 26.128906 Z M 2.480469 2.902344 " fill-opacity="1" fill-rule="nonzero"/></g></g><g clip-path="url(#406af5336d)"><path fill="#551684" d="M 11.007812 9.800781 C 8.75 10.050781 6.914062 11.871094 6.640625 14.125 C 6.570312 14.695312 6.597656 15.261719 6.722656 15.824219 C 6.847656 16.386719 7.0625 16.910156 7.371094 17.398438 C 7.675781 17.882812 8.054688 18.304688 8.507812 18.660156 C 8.960938 19.015625 9.460938 19.285156 10.003906 19.46875 C 10.253906 19.507812 10.335938 19.355469 10.335938 19.21875 L 10.335938 18.378906 C 8.957031 18.679688 8.664062 17.714844 8.664062 17.714844 C 8.433594 17.136719 8.109375 16.980469 8.109375 16.980469 C 7.65625 16.671875 8.144531 16.683594 8.144531 16.683594 C 8.644531 16.71875 8.90625 17.195312 8.90625 17.195312 C 9.339844 17.953125 10.070312 17.726562 10.355469 17.609375 C 10.398438 17.285156 10.53125 17.066406 10.667969 16.941406 C 9.5625 16.816406 8.402344 16.390625 8.402344 14.496094 C 8.402344 13.941406 8.59375 13.5 8.917969 13.148438 C 8.867188 13.023438 8.691406 12.503906 8.964844 11.835938 C 8.964844 11.835938 9.382812 11.699219 10.335938 12.339844 C 11.164062 12.117188 11.992188 12.117188 12.820312 12.339844 C 13.773438 11.699219 14.1875 11.835938 14.1875 11.835938 C 14.460938 12.503906 14.289062 13.023438 14.238281 13.148438 C 14.5625 13.5 14.75 13.941406 14.75 14.496094 C 14.75 16.394531 13.585938 16.8125 12.476562 16.9375 C 12.65625 17.089844 12.820312 17.394531 12.820312 17.855469 L 12.820312 19.21875 C 12.820312 19.355469 12.902344 19.511719 13.15625 19.46875 C 13.738281 19.273438 14.265625 18.980469 14.742188 18.589844 C 15.214844 18.195312 15.605469 17.734375 15.90625 17.199219 C 16.210938 16.664062 16.40625 16.089844 16.496094 15.480469 C 16.585938 14.875 16.566406 14.269531 16.433594 13.667969 C 16.300781 13.066406 16.0625 12.511719 15.722656 12 C 15.382812 11.484375 14.964844 11.050781 14.460938 10.695312 C 13.960938 10.335938 13.414062 10.082031 12.816406 9.925781 C 12.222656 9.773438 11.617188 9.730469 11.007812 9.800781 Z M 11.007812 9.800781 " fill-opacity="1" fill-rule="nonzero"/></g><g fill="#551684" fill-opacity="1"><g transform="translate(18.685426, 17.667307)"><g><path d="M 0.03125 -6.75 L 0.921875 -7.09375 L 1.15625 -7.203125 L 1.25 -6.96875 L 3.140625 -1.71875 L 5.0625 -6.9375 L 5.125 -7.15625 L 5.359375 -7.0625 L 6.203125 -6.75 L 6.421875 -6.65625 L 6.328125 -6.4375 L 3.859375 0.09375 L 3.796875 0.234375 L 2.4375 0.234375 L 2.375 0.09375 L -0.109375 -6.4375 L -0.203125 -6.65625 Z M 0.03125 -6.75 "/></g></g></g><g fill="#551684" fill-opacity="1"><g transform="translate(24.876532, 17.667307)"><g><path d="M 1.609375 -1.921875 C 1.679688 -1.628906 1.804688 -1.398438 1.984375 -1.234375 C 2.210938 -1.015625 2.515625 -0.90625 2.890625 -0.90625 C 2.984375 -0.90625 3.070312 -0.90625 3.15625 -0.90625 C 3.238281 -0.914062 3.316406 -0.925781 3.390625 -0.9375 C 3.472656 -0.945312 3.550781 -0.960938 3.625 -0.984375 C 3.6875 -1.003906 3.753906 -1.023438 3.828125 -1.046875 C 3.898438 -1.066406 3.96875 -1.085938 4.03125 -1.109375 C 4.101562 -1.140625 4.175781 -1.171875 4.25 -1.203125 L 4.5 -1.328125 L 4.578125 -1.046875 L 4.78125 -0.3125 L 4.84375 -0.109375 L 4.65625 -0.015625 C 4.40625 0.0976562 4.125 0.1875 3.8125 0.25 C 3.65625 0.289062 3.488281 0.316406 3.3125 0.328125 C 3.144531 0.347656 2.96875 0.359375 2.78125 0.359375 C 2.394531 0.359375 2.039062 0.296875 1.71875 0.171875 C 1.394531 0.0351562 1.117188 -0.160156 0.890625 -0.421875 C 0.660156 -0.660156 0.488281 -0.960938 0.375 -1.328125 C 0.25 -1.671875 0.1875 -2.066406 0.1875 -2.515625 C 0.1875 -2.910156 0.25 -3.285156 0.375 -3.640625 C 0.4375 -3.804688 0.507812 -3.96875 0.59375 -4.125 C 0.675781 -4.28125 0.769531 -4.425781 0.875 -4.5625 C 1.09375 -4.8125 1.359375 -5.015625 1.671875 -5.171875 C 1.984375 -5.316406 2.328125 -5.390625 2.703125 -5.390625 C 2.835938 -5.390625 2.960938 -5.378906 3.078125 -5.359375 C 3.203125 -5.347656 3.316406 -5.328125 3.421875 -5.296875 C 3.535156 -5.265625 3.644531 -5.226562 3.75 -5.1875 C 3.90625 -5.113281 4.046875 -5.03125 4.171875 -4.9375 C 4.296875 -4.84375 4.410156 -4.734375 4.515625 -4.609375 C 4.710938 -4.367188 4.863281 -4.097656 4.96875 -3.796875 C 5.019531 -3.640625 5.054688 -3.476562 5.078125 -3.3125 C 5.097656 -3.144531 5.109375 -2.976562 5.109375 -2.8125 C 5.109375 -2.769531 5.109375 -2.722656 5.109375 -2.671875 C 5.109375 -2.628906 5.109375 -2.582031 5.109375 -2.53125 C 5.109375 -2.488281 5.109375 -2.441406 5.109375 -2.390625 C 5.109375 -2.347656 5.101562 -2.304688 5.09375 -2.265625 C 5.09375 -2.222656 5.09375 -2.179688 5.09375 -2.140625 L 5.0625 -1.921875 Z M 2.6875 -4.15625 C 2.375 -4.15625 2.125 -4.050781 1.9375 -3.84375 C 1.851562 -3.757812 1.78125 -3.65625 1.71875 -3.53125 C 1.664062 -3.40625 1.625 -3.265625 1.59375 -3.109375 L 3.828125 -3.109375 C 3.785156 -3.410156 3.6875 -3.648438 3.53125 -3.828125 C 3.332031 -4.046875 3.050781 -4.15625 2.6875 -4.15625 Z M 2.6875 -4.15625 "/></g></g></g><g fill="#551684" fill-opacity="1"><g transform="translate(30.138972, 17.667307)"><g><path d="M 3.40625 -3.96875 C 3.3125 -4.007812 3.195312 -4.03125 3.0625 -4.03125 C 2.988281 -4.03125 2.914062 -4.019531 2.84375 -4 C 2.78125 -3.976562 2.710938 -3.953125 2.640625 -3.921875 C 2.492188 -3.867188 2.367188 -3.773438 2.265625 -3.640625 C 2.210938 -3.578125 2.160156 -3.5 2.109375 -3.40625 C 2.066406 -3.320312 2.03125 -3.234375 2 -3.140625 C 1.925781 -2.921875 1.890625 -2.65625 1.890625 -2.34375 L 1.890625 0.234375 L 0.53125 0.234375 L 0.53125 -5.265625 L 1.859375 -5.265625 L 1.859375 -4.796875 C 1.910156 -4.859375 1.972656 -4.914062 2.046875 -4.96875 C 2.191406 -5.09375 2.363281 -5.191406 2.5625 -5.265625 C 2.664062 -5.304688 2.769531 -5.335938 2.875 -5.359375 C 2.988281 -5.378906 3.109375 -5.390625 3.234375 -5.390625 C 3.335938 -5.390625 3.441406 -5.382812 3.546875 -5.375 C 3.648438 -5.363281 3.742188 -5.34375 3.828125 -5.3125 L 4.0625 -5.25 L 4 -5.015625 L 3.734375 -4.125 L 3.65625 -3.859375 Z M 3.40625 -3.96875 "/></g></g></g><g fill="#551684" fill-opacity="1"><g transform="translate(33.998739, 17.667307)"><g><path d="M 0.875 -1.3125 C 1.007812 -1.1875 1.191406 -1.082031 1.421875 -1 C 1.648438 -0.914062 1.894531 -0.875 2.15625 -0.875 C 2.46875 -0.875 2.695312 -0.921875 2.84375 -1.015625 C 2.957031 -1.085938 3.015625 -1.175781 3.015625 -1.28125 C 3.015625 -1.34375 3 -1.398438 2.96875 -1.453125 C 2.945312 -1.503906 2.910156 -1.554688 2.859375 -1.609375 C 2.773438 -1.671875 2.664062 -1.734375 2.53125 -1.796875 C 2.488281 -1.804688 2.441406 -1.820312 2.390625 -1.84375 C 2.347656 -1.863281 2.300781 -1.882812 2.25 -1.90625 C 2.195312 -1.925781 2.144531 -1.945312 2.09375 -1.96875 C 2.039062 -1.988281 1.984375 -2.007812 1.921875 -2.03125 C 1.742188 -2.09375 1.585938 -2.15625 1.453125 -2.21875 C 1.316406 -2.28125 1.191406 -2.347656 1.078125 -2.421875 C 0.960938 -2.492188 0.859375 -2.570312 0.765625 -2.65625 C 0.617188 -2.789062 0.507812 -2.953125 0.4375 -3.140625 C 0.375 -3.328125 0.34375 -3.535156 0.34375 -3.765625 C 0.34375 -3.992188 0.394531 -4.210938 0.5 -4.421875 C 0.53125 -4.484375 0.566406 -4.546875 0.609375 -4.609375 C 0.660156 -4.671875 0.710938 -4.726562 0.765625 -4.78125 C 0.816406 -4.832031 0.875 -4.882812 0.9375 -4.9375 C 1.125 -5.082031 1.347656 -5.191406 1.609375 -5.265625 C 1.867188 -5.347656 2.164062 -5.390625 2.5 -5.390625 C 2.84375 -5.390625 3.148438 -5.351562 3.421875 -5.28125 C 3.554688 -5.238281 3.679688 -5.195312 3.796875 -5.15625 C 3.921875 -5.113281 4.035156 -5.0625 4.140625 -5 L 4.328125 -4.90625 L 4.265625 -4.703125 L 4.03125 -4 L 3.921875 -3.71875 L 3.671875 -3.859375 C 3.515625 -3.953125 3.335938 -4.03125 3.140625 -4.09375 C 2.929688 -4.144531 2.703125 -4.171875 2.453125 -4.171875 C 2.359375 -4.171875 2.269531 -4.164062 2.1875 -4.15625 C 2.101562 -4.144531 2.03125 -4.128906 1.96875 -4.109375 C 1.914062 -4.085938 1.875 -4.0625 1.84375 -4.03125 C 1.769531 -3.976562 1.722656 -3.929688 1.703125 -3.890625 C 1.679688 -3.847656 1.671875 -3.804688 1.671875 -3.765625 C 1.671875 -3.722656 1.675781 -3.6875 1.6875 -3.65625 C 1.707031 -3.632812 1.738281 -3.601562 1.78125 -3.5625 C 1.84375 -3.519531 1.929688 -3.472656 2.046875 -3.421875 C 2.109375 -3.398438 2.175781 -3.375 2.25 -3.34375 C 2.320312 -3.3125 2.40625 -3.28125 2.5 -3.25 C 2.582031 -3.21875 2.660156 -3.1875 2.734375 -3.15625 C 2.816406 -3.125 2.890625 -3.09375 2.953125 -3.0625 C 3.023438 -3.039062 3.09375 -3.015625 3.15625 -2.984375 C 3.21875 -2.953125 3.28125 -2.925781 3.34375 -2.90625 C 3.582031 -2.769531 3.78125 -2.628906 3.9375 -2.484375 C 4.09375 -2.328125 4.207031 -2.148438 4.28125 -1.953125 C 4.34375 -1.765625 4.375 -1.5625 4.375 -1.34375 C 4.375 -1.082031 4.316406 -0.84375 4.203125 -0.625 C 4.085938 -0.40625 3.929688 -0.222656 3.734375 -0.078125 C 3.628906 -0.00390625 3.515625 0.0546875 3.390625 0.109375 C 3.273438 0.160156 3.148438 0.207031 3.015625 0.25 C 2.742188 0.320312 2.445312 0.359375 2.125 0.359375 C 1.71875 0.359375 1.347656 0.304688 1.015625 0.203125 C 0.679688 0.0859375 0.40625 -0.0507812 0.1875 -0.21875 L 0.03125 -0.34375 L 0.125 -0.515625 L 0.5 -1.234375 L 0.625 -1.515625 Z M 0.875 -1.3125 "/></g></g></g><g fill="#551684" fill-opacity="1"><g transform="translate(38.525981, 17.667307)"><g><path d="M 1.640625 0.234375 L 0.53125 0.234375 L 0.53125 -5.265625 L 1.890625 -5.265625 L 1.890625 0.234375 Z M 1.203125 -5.640625 C 0.972656 -5.640625 0.773438 -5.722656 0.609375 -5.890625 C 0.441406 -6.066406 0.359375 -6.269531 0.359375 -6.5 C 0.359375 -6.75 0.4375 -6.953125 0.59375 -7.109375 C 0.75 -7.265625 0.953125 -7.34375 1.203125 -7.34375 C 1.328125 -7.34375 1.4375 -7.320312 1.53125 -7.28125 C 1.632812 -7.238281 1.726562 -7.175781 1.8125 -7.09375 C 1.894531 -7.019531 1.957031 -6.929688 2 -6.828125 C 2.039062 -6.722656 2.0625 -6.613281 2.0625 -6.5 C 2.0625 -6.25 1.984375 -6.039062 1.828125 -5.875 C 1.671875 -5.71875 1.460938 -5.640625 1.203125 -5.640625 Z M 1.203125 -5.640625 "/></g></g></g><g fill="#551684" fill-opacity="1"><g transform="translate(40.94438, 17.667307)"><g><path d="M 4.265625 -2.515625 C 4.265625 -2.742188 4.226562 -2.957031 4.15625 -3.15625 C 4.082031 -3.34375 3.988281 -3.515625 3.875 -3.671875 C 3.820312 -3.710938 3.773438 -3.753906 3.734375 -3.796875 C 3.691406 -3.835938 3.644531 -3.875 3.59375 -3.90625 C 3.539062 -3.945312 3.484375 -3.976562 3.421875 -4 C 3.347656 -4.050781 3.265625 -4.082031 3.171875 -4.09375 C 3.078125 -4.113281 2.984375 -4.125 2.890625 -4.125 C 2.460938 -4.125 2.128906 -3.988281 1.890625 -3.71875 C 1.640625 -3.425781 1.515625 -3.03125 1.515625 -2.53125 C 1.515625 -2.3125 1.550781 -2.097656 1.625 -1.890625 C 1.632812 -1.859375 1.644531 -1.828125 1.65625 -1.796875 C 1.675781 -1.765625 1.691406 -1.734375 1.703125 -1.703125 C 1.722656 -1.671875 1.738281 -1.640625 1.75 -1.609375 C 1.769531 -1.578125 1.785156 -1.546875 1.796875 -1.515625 C 1.816406 -1.492188 1.835938 -1.46875 1.859375 -1.4375 C 1.878906 -1.414062 1.898438 -1.394531 1.921875 -1.375 C 1.960938 -1.320312 2.003906 -1.273438 2.046875 -1.234375 C 2.097656 -1.191406 2.144531 -1.148438 2.1875 -1.109375 C 2.238281 -1.078125 2.296875 -1.050781 2.359375 -1.03125 C 2.429688 -0.976562 2.515625 -0.941406 2.609375 -0.921875 C 2.703125 -0.910156 2.796875 -0.90625 2.890625 -0.90625 C 3.109375 -0.90625 3.300781 -0.941406 3.46875 -1.015625 C 3.550781 -1.054688 3.625 -1.101562 3.6875 -1.15625 C 3.757812 -1.207031 3.828125 -1.265625 3.890625 -1.328125 C 4.015625 -1.460938 4.109375 -1.632812 4.171875 -1.84375 C 4.234375 -2.039062 4.265625 -2.265625 4.265625 -2.515625 Z M 0.140625 -2.515625 C 0.140625 -2.953125 0.210938 -3.347656 0.359375 -3.703125 C 0.503906 -4.054688 0.695312 -4.359375 0.9375 -4.609375 C 1.1875 -4.859375 1.476562 -5.050781 1.8125 -5.1875 C 2.144531 -5.320312 2.503906 -5.390625 2.890625 -5.390625 C 2.984375 -5.390625 3.078125 -5.382812 3.171875 -5.375 C 3.265625 -5.363281 3.351562 -5.347656 3.4375 -5.328125 C 3.53125 -5.316406 3.617188 -5.296875 3.703125 -5.265625 C 3.796875 -5.242188 3.882812 -5.21875 3.96875 -5.1875 C 4.132812 -5.125 4.289062 -5.039062 4.4375 -4.9375 C 4.582031 -4.84375 4.71875 -4.734375 4.84375 -4.609375 C 5.09375 -4.359375 5.285156 -4.054688 5.421875 -3.703125 C 5.566406 -3.359375 5.640625 -2.96875 5.640625 -2.53125 C 5.640625 -2.101562 5.570312 -1.710938 5.4375 -1.359375 C 5.289062 -1.003906 5.097656 -0.695312 4.859375 -0.4375 C 4.734375 -0.3125 4.597656 -0.195312 4.453125 -0.09375 C 4.304688 0 4.144531 0.0820312 3.96875 0.15625 C 3.632812 0.289062 3.273438 0.359375 2.890625 0.359375 C 2.703125 0.359375 2.515625 0.335938 2.328125 0.296875 C 2.140625 0.265625 1.960938 0.210938 1.796875 0.140625 C 1.460938 0.00390625 1.171875 -0.1875 0.921875 -0.4375 C 0.679688 -0.695312 0.488281 -1.003906 0.34375 -1.359375 C 0.207031 -1.710938 0.140625 -2.097656 0.140625 -2.515625 Z M 0.140625 -2.515625 "/></g></g></g><g fill="#551684" fill-opacity="1"><g transform="translate(46.729191, 17.667307)"><g><path d="M 1.859375 -4.828125 C 1.910156 -4.878906 1.960938 -4.921875 2.015625 -4.953125 C 2.066406 -4.992188 2.117188 -5.03125 2.171875 -5.0625 C 2.492188 -5.28125 2.875 -5.390625 3.3125 -5.390625 C 3.625 -5.390625 3.898438 -5.335938 4.140625 -5.234375 C 4.390625 -5.140625 4.597656 -4.988281 4.765625 -4.78125 C 5.078125 -4.394531 5.234375 -3.894531 5.234375 -3.28125 L 5.234375 0.234375 L 3.890625 0.234375 L 3.890625 -3.1875 C 3.890625 -3.289062 3.878906 -3.390625 3.859375 -3.484375 C 3.847656 -3.578125 3.828125 -3.65625 3.796875 -3.71875 C 3.765625 -3.789062 3.726562 -3.851562 3.6875 -3.90625 C 3.644531 -3.957031 3.597656 -4 3.546875 -4.03125 C 3.503906 -4.070312 3.445312 -4.097656 3.375 -4.109375 C 3.3125 -4.128906 3.238281 -4.140625 3.15625 -4.140625 C 3.039062 -4.140625 2.925781 -4.117188 2.8125 -4.078125 C 2.6875 -4.023438 2.566406 -3.957031 2.453125 -3.875 C 2.335938 -3.789062 2.226562 -3.691406 2.125 -3.578125 C 2.082031 -3.523438 2.039062 -3.472656 2 -3.421875 C 1.957031 -3.367188 1.921875 -3.316406 1.890625 -3.265625 L 1.890625 0.234375 L 0.53125 0.234375 L 0.53125 -5.265625 L 1.859375 -5.265625 Z M 1.859375 -4.828125 "/></g></g></g><g fill="#551684" fill-opacity="1"><g transform="translate(52.45597, 17.667307)"><g/></g></g><g fill="#551684" fill-opacity="1"><g transform="translate(55.358055, 17.667307)"><g><path d="M 3.890625 -6.765625 L 3.890625 -1.015625 L 5.046875 -1.015625 L 5.046875 0.234375 L 1.15625 0.234375 L 1.15625 -1.015625 L 2.53125 -1.015625 L 2.53125 -5.171875 L 1.625 -4.484375 L 1.4375 -4.34375 L 1.28125 -4.53125 L 0.8125 -5.1875 L 0.671875 -5.390625 L 0.859375 -5.515625 L 2.859375 -6.96875 L 2.9375 -7.015625 L 3.890625 -7.015625 Z M 3.890625 -6.765625 "/></g></g></g><g fill="#551684" fill-opacity="1"><g transform="translate(61.162214, 17.667307)"><g><path d="M 0.5625 -0.53125 C 0.5625 -0.613281 0.566406 -0.691406 0.578125 -0.765625 C 0.597656 -0.835938 0.625 -0.910156 0.65625 -0.984375 C 0.695312 -1.054688 0.742188 -1.117188 0.796875 -1.171875 C 0.953125 -1.335938 1.171875 -1.421875 1.453125 -1.421875 C 1.679688 -1.421875 1.882812 -1.332031 2.0625 -1.15625 C 2.25 -0.988281 2.34375 -0.78125 2.34375 -0.53125 C 2.34375 -0.269531 2.253906 -0.0546875 2.078125 0.109375 C 1.910156 0.273438 1.703125 0.359375 1.453125 0.359375 C 1.210938 0.359375 1.003906 0.269531 0.828125 0.09375 C 0.648438 -0.0820312 0.5625 -0.289062 0.5625 -0.53125 Z M 0.5625 -0.53125 "/></g></g></g><g fill="#551684" fill-opacity="1"><g transform="translate(64.064299, 17.667307)"><g><path d="M 2.90625 -7.125 C 3.320312 -7.125 3.695312 -7.035156 4.03125 -6.859375 C 4.1875 -6.773438 4.332031 -6.664062 4.46875 -6.53125 C 4.601562 -6.40625 4.726562 -6.257812 4.84375 -6.09375 C 5.039062 -5.769531 5.195312 -5.375 5.3125 -4.90625 C 5.414062 -4.457031 5.46875 -3.945312 5.46875 -3.375 C 5.46875 -2.195312 5.253906 -1.289062 4.828125 -0.65625 C 4.378906 0.0195312 3.734375 0.359375 2.890625 0.359375 C 2.046875 0.359375 1.40625 0.015625 0.96875 -0.671875 C 0.75 -1.003906 0.585938 -1.394531 0.484375 -1.84375 C 0.390625 -2.300781 0.34375 -2.816406 0.34375 -3.390625 C 0.34375 -4.566406 0.554688 -5.472656 0.984375 -6.109375 C 1.429688 -6.785156 2.070312 -7.125 2.90625 -7.125 Z M 2.90625 -5.84375 C 2.882812 -5.84375 2.863281 -5.84375 2.84375 -5.84375 C 2.820312 -5.84375 2.800781 -5.84375 2.78125 -5.84375 C 2.757812 -5.84375 2.734375 -5.835938 2.703125 -5.828125 C 2.679688 -5.828125 2.660156 -5.820312 2.640625 -5.8125 C 2.628906 -5.8125 2.613281 -5.804688 2.59375 -5.796875 C 2.582031 -5.796875 2.566406 -5.789062 2.546875 -5.78125 C 2.523438 -5.78125 2.503906 -5.773438 2.484375 -5.765625 C 2.472656 -5.753906 2.457031 -5.742188 2.4375 -5.734375 C 2.375 -5.703125 2.3125 -5.65625 2.25 -5.59375 C 2.195312 -5.539062 2.144531 -5.46875 2.09375 -5.375 C 1.976562 -5.1875 1.894531 -4.9375 1.84375 -4.625 C 1.769531 -4.300781 1.734375 -3.894531 1.734375 -3.40625 C 1.734375 -2.550781 1.847656 -1.910156 2.078125 -1.484375 C 2.273438 -1.109375 2.550781 -0.921875 2.90625 -0.921875 C 2.988281 -0.921875 3.066406 -0.929688 3.140625 -0.953125 C 3.222656 -0.972656 3.296875 -1 3.359375 -1.03125 C 3.492188 -1.101562 3.613281 -1.222656 3.71875 -1.390625 C 3.769531 -1.484375 3.816406 -1.59375 3.859375 -1.71875 C 3.898438 -1.84375 3.9375 -1.984375 3.96875 -2.140625 C 4.03125 -2.460938 4.0625 -2.867188 4.0625 -3.359375 C 4.0625 -4.222656 3.945312 -4.867188 3.71875 -5.296875 C 3.519531 -5.660156 3.25 -5.84375 2.90625 -5.84375 Z M 2.90625 -5.84375 "/></g></g></g><g fill="#551684" fill-opacity="1"><g transform="translate(69.868458, 17.667307)"><g><path d="M 0.5625 -0.53125 C 0.5625 -0.613281 0.566406 -0.691406 0.578125 -0.765625 C 0.597656 -0.835938 0.625 -0.910156 0.65625 -0.984375 C 0.695312 -1.054688 0.742188 -1.117188 0.796875 -1.171875 C 0.953125 -1.335938 1.171875 -1.421875 1.453125 -1.421875 C 1.679688 -1.421875 1.882812 -1.332031 2.0625 -1.15625 C 2.25 -0.988281 2.34375 -0.78125 2.34375 -0.53125 C 2.34375 -0.269531 2.253906 -0.0546875 2.078125 0.109375 C 1.910156 0.273438 1.703125 0.359375 1.453125 0.359375 C 1.210938 0.359375 1.003906 0.269531 0.828125 0.09375 C 0.648438 -0.0820312 0.5625 -0.289062 0.5625 -0.53125 Z M 0.5625 -0.53125 "/></g></g></g><g fill="#551684" fill-opacity="1"><g transform="translate(72.770543, 17.667307)"><g><path d="M 2.90625 -7.125 C 3.320312 -7.125 3.695312 -7.035156 4.03125 -6.859375 C 4.1875 -6.773438 4.332031 -6.664062 4.46875 -6.53125 C 4.601562 -6.40625 4.726562 -6.257812 4.84375 -6.09375 C 5.039062 -5.769531 5.195312 -5.375 5.3125 -4.90625 C 5.414062 -4.457031 5.46875 -3.945312 5.46875 -3.375 C 5.46875 -2.195312 5.253906 -1.289062 4.828125 -0.65625 C 4.378906 0.0195312 3.734375 0.359375 2.890625 0.359375 C 2.046875 0.359375 1.40625 0.015625 0.96875 -0.671875 C 0.75 -1.003906 0.585938 -1.394531 0.484375 -1.84375 C 0.390625 -2.300781 0.34375 -2.816406 0.34375 -3.390625 C 0.34375 -4.566406 0.554688 -5.472656 0.984375 -6.109375 C 1.429688 -6.785156 2.070312 -7.125 2.90625 -7.125 Z M 2.90625 -5.84375 C 2.882812 -5.84375 2.863281 -5.84375 2.84375 -5.84375 C 2.820312 -5.84375 2.800781 -5.84375 2.78125 -5.84375 C 2.757812 -5.84375 2.734375 -5.835938 2.703125 -5.828125 C 2.679688 -5.828125 2.660156 -5.820312 2.640625 -5.8125 C 2.628906 -5.8125 2.613281 -5.804688 2.59375 -5.796875 C 2.582031 -5.796875 2.566406 -5.789062 2.546875 -5.78125 C 2.523438 -5.78125 2.503906 -5.773438 2.484375 -5.765625 C 2.472656 -5.753906 2.457031 -5.742188 2.4375 -5.734375 C 2.375 -5.703125 2.3125 -5.65625 2.25 -5.59375 C 2.195312 -5.539062 2.144531 -5.46875 2.09375 -5.375 C 1.976562 -5.1875 1.894531 -4.9375 1.84375 -4.625 C 1.769531 -4.300781 1.734375 -3.894531 1.734375 -3.40625 C 1.734375 -2.550781 1.847656 -1.910156 2.078125 -1.484375 C 2.273438 -1.109375 2.550781 -0.921875 2.90625 -0.921875 C 2.988281 -0.921875 3.066406 -0.929688 3.140625 -0.953125 C 3.222656 -0.972656 3.296875 -1 3.359375 -1.03125 C 3.492188 -1.101562 3.613281 -1.222656 3.71875 -1.390625 C 3.769531 -1.484375 3.816406 -1.59375 3.859375 -1.71875 C 3.898438 -1.84375 3.9375 -1.984375 3.96875 -2.140625 C 4.03125 -2.460938 4.0625 -2.867188 4.0625 -3.359375 C 4.0625 -4.222656 3.945312 -4.867188 3.71875 -5.296875 C 3.519531 -5.660156 3.25 -5.84375 2.90625 -5.84375 Z M 2.90625 -5.84375 "/></g></g></g></svg>